# File exported by ZBrush version 2025
# www.zbrush.com
g ZBrushPolyMesh3D
#Vertex Count 570
#Face Count 568
#Auto scale x=1.000000 y=1.000000 z=1.000000
#Auto offset x=0.000000 y=0.000000 z=0.000000
v -0.00001882 -13.51016712 1.20822548
v 0.02881718 -13.92771244 0.5217849
v -0.5182631 0.52386081 0.55637633
v -0.65125161 0.48641786 0.36909246
v -0.00293863 -13.78000831 1.18409633
v -0.00571286 -13.79923152 1.14873802
v -0.00000829 -13.59973335 1.19974005
v 0 -13.66775989 1.20010602
v 0 -13.59652042 1.20598995
v 0 -13.75105857 1.20168721
v -0 -13.98550701 0.52002674
v 0 -14.02057457 0.62639051
v -0.01576231 -13.97347164 0.51958906
v -0.38271406 0.53997123 0.57221829
v -0.41113373 0.53354448 0.54302543
v -0.63113665 0.5110858 0.51829296
v -0.67768621 0.5220673 0.61982888
v -0.42161604 0.5387789 0.63124358
v -0.87537998 0.52322155 0.52025204
v -0.45573571 0.51826494 0.46312236
v -0.69915926 0.47208008 0.29556557
v -0.91914731 0.50285363 0.36300167
v -0.39928838 0.49414983 0.27405118
v -0.27172237 0.53946769 0.4911192
v 0 0.54801714 0.49174189
v 0 0.49593636 0.21583974
v -0.24197934 0.5519967 0.5624488
v -0 0.56265068 0.57865822
v -0.24265141 0.55645251 0.59818673
v 0 0.56801551 0.62033855
v -0.25111699 0.55711537 0.6143614
v 0 0.5689004 0.6323958
v -0.28797131 0.53625387 0.71638047
v 0 0.55919969 0.69885873
v -0.48459872 0.45318812 1.05804181
v -0 0.4462738 0.97783505
v -0.56442427 0.21013632 1.25074529
v 0 0.26666256 1.36261296
v -0.49591985 -0.24256946 1.12745058
v 0 -0.20965954 1.25519168
v -0.46699166 -0.48719912 1.0264765
v -0 -0.46657681 1.14891827
v -0.4555169 -0.7148413 0.99783718
v 0 -0.68399447 1.12614738
v -0.4654974 -1.08876061 1.04227018
v 0 -1.04399979 1.17178261
v -0.45565199 -1.5341134 1.03009533
v 0 -1.47248649 1.14656424
v -0.46036672 -1.95970165 1.02987933
v -0 -1.90457403 1.15201938
v -0.47350248 -2.36207079 1.04692232
v 0 -2.3424077 1.15848445
v -0.47170558 -2.75060987 1.06870353
v -0 -2.76868701 1.15971529
v -0.43884745 -3.16725206 1.10267972
v 0 -3.19092845 1.18260443
v -0.39553394 -3.62556576 1.11299657
v -0 -3.62469244 1.19257628
v -0.36176055 -4.07038402 1.09248948
v -0 -4.04495334 1.16002941
v -0.35331299 -4.49871254 1.08762753
v 0 -4.47182178 1.14548456
v -0.35225552 -4.93234539 1.10754907
v 0 -4.92361593 1.16873467
v -0.33294999 -5.37614679 1.12522208
v 0 -5.38214826 1.20083212
v -0.29932957 -5.84128856 1.09993135
v 0 -5.82992315 1.18160355
v -0.25463372 -6.29822921 1.063519
v 0 -6.27346658 1.13909053
v -0.20853233 -6.7156496 1.04241681
v 0 -6.71462535 1.10398995
v -0.16277769 -7.12427902 1.03544092
v 0 -7.14421463 1.0781753
v -0.1323302 -7.55252122 1.03932368
v -0 -7.56924581 1.06856322
v -0.13573052 -8.00602531 1.05950093
v 0 -8.01348114 1.0908432
v -0.17373798 -8.4738655 1.09400439
v 0 -8.47853183 1.15070879
v -0.19916386 -8.92871379 1.13243842
v 0 -8.93200969 1.20120215
v -0.17906501 -9.36055851 1.15792703
v -0 -9.35633373 1.2152878
v -0.172719 -9.78649807 1.13826274
v 0 -9.77901077 1.18039548
v -0.16712151 -10.20073604 1.13075983
v 0 -10.21153354 1.15928661
v -0.11257676 -10.96587276 1.26192331
v -0 -11.00844287 1.29245603
v -0.12896384 -12.43761825 1.42175316
v 0 -12.49735736 1.41680395
v -0.01586261 -13.56768703 1.31475329
v 0 -13.59824276 1.346138
v -0.2549054 -12.30321788 1.43179595
v -0.04284201 -13.49945354 1.28705143
v -0.38955786 -12.00616073 1.33454084
v -0.09426309 -13.37737846 1.24173009
v -0.00705951 -13.87061977 1.12402117
v -0.00001373 -13.61045837 1.19571566
v -0.25091606 -13.15061569 1.09856367
v -0.01133214 -14.00192642 1.05000138
v -0.00073758 -13.67799186 1.00536751
v -0 -13.76154899 1.19304692
v 0 -13.70491409 1.19720208
v -0.04223026 -13.97030258 0.86251318
v -0.00224236 -14.00025177 0.67033439
v 0 -14.11379146 0.97214013
v -0.12939712 -13.72636127 0.62165498
v -0.53428441 -12.93949413 0.8255645
v -0.41968679 -12.79300022 0.5952242
v -0.19432143 -12.76141643 0.47467437
v -0.08603031 -13.68602275 0.50743556
v 0 -12.75826263 0.44401595
v 0 -13.69558048 0.49460697
v -0.18875731 -11.51104831 0.21854127
v 0 -11.52566623 0.17603172
v -0.20325124 -10.737751 0.08989347
v 0 -10.73316288 0.0575106
v -0.23412965 -10.32823371 0.02286588
v 0 -10.33250904 -0.01158728
v -0.30914673 -9.89639377 -0.03866032
v -0 -9.90906524 -0.09958469
v -0.36367896 -9.44332599 -0.06757867
v 0 -9.45480346 -0.14476954
v -0.38551619 -9.00093841 -0.092063
v 0.00000002 -9.00580024 -0.17881438
v -0.36270996 -8.54772758 -0.12064796
v 0 -8.54555797 -0.20845829
v -0.30642598 -8.10459137 -0.15153838
v -0 -8.08956432 -0.20966447
v -0.28876841 -7.68242406 -0.19205685
v 0 -7.67363929 -0.23546807
v -0.30990764 -7.26219272 -0.24198198
v -0 -7.26719951 -0.2871328
v -0.36948722 -6.83440494 -0.29434517
v 0 -6.85645389 -0.36389356
v -0.44543793 -6.3945198 -0.33367338
v 0 -6.42530441 -0.44429013
v -0.50915759 -5.94531726 -0.36050671
v -0 -5.97456073 -0.50681018
v -0.54832273 -5.48269701 -0.35974982
v -0 -5.50761032 -0.55124837
v -0.5591855 -5.0350728 -0.34963384
v 0 -5.04625463 -0.55917555
v -0.56012159 -4.61816549 -0.35878983
v 0 -4.62736988 -0.56751799
v -0.57250493 -4.21960401 -0.39503485
v 0 -4.23046922 -0.60740023
v -0.57673102 -3.82579731 -0.46681928
v 0 -3.83114862 -0.66772013
v -0.57823628 -3.41906189 -0.57038366
v -0 -3.42359781 -0.74835372
v -0.5731095 -2.99100279 -0.68255484
v 0 -2.99410152 -0.83857262
v -0.5656712 -2.5665965 -0.77464246
v 0 -2.56701731 -0.90934491
v -0.55349177 -2.15739274 -0.8482052
v -0.00000002 -2.16205859 -0.96600955
v -0.5430811 -1.75853693 -0.92585003
v 0 -1.78229248 -1.03961694
v -0.55357265 -1.34379065 -1.02051401
v 0 -1.38334596 -1.15237414
v -0.58600068 -0.92180597 -1.14370441
v 0 -0.91107255 -1.30677616
v -0.61405378 -0.46883213 -1.25909209
v -0 -0.38466849 -1.43693363
v -0.62419372 -0.09742461 -1.22939908
v 0 0.01585823 -1.37340009
v -0.66271776 0.13089944 -1.11573362
v -0 0.15851306 -1.1862998
v -0.77932262 0.31219074 -0.78265017
v 0 0.25866276 -0.80271875
v -0.64282482 0.41228967 -0.14855307
v -0 0.39104965 -0.25132203
v -1.1352216 -0.25330245 -0.89097356
v -1.23407506 0.06852637 -0.8307867
v -1.3366369 0.57289874 -0.55559361
v -1.36767745 -0.33378452 -0.24639904
v -1.42330992 0.02391672 -0.144279
v -1.33986818 0.39636999 0.06627069
v -1.27248704 0.01409819 0.37499046
v -1.22425818 0.35898098 0.42794889
v -1.08411765 0.54849964 0.47299104
v -1.14132869 0.54042404 0.23296269
v -1.04749298 0.49291011 -0.0171771
v -1.10701191 0.41912627 0.67933046
v -0.92476266 0.55617487 0.705522
v -0.90984505 0.5055415 0.95788323
v -0.60400581 0.50964516 0.81836569
v -0.93048721 0.08273685 0.93874824
v -1.12411499 0.04266765 0.6666665
v -1.06944131 -0.2751069 0.62676435
v -0.86150956 -0.26783356 0.86493527
v -1.25006377 -0.29233276 0.31848377
v -1.21850824 -0.55163914 0.27187752
v -1.00476729 -0.50654363 0.60821032
v -1.29086267 -0.61640751 -0.27049917
v -1.22681045 -0.9281767 -0.21162125
v -1.17888081 -0.86853826 0.30359751
v -1.10334253 -0.56152963 -0.89639997
v -1.06198763 -0.93844074 -0.79458689
v -1.02156984 -1.31028485 -0.6928671
v -1.17553818 -1.27079832 -0.1459966
v -1.13526463 -1.66482067 -0.0903396
v -1.1027733 -1.62109446 0.36450293
v -1.1421082 -1.23407888 0.32670489
v -0.99296498 -1.73342669 -0.5950545
v -0.96299225 -2.15086102 -0.49299064
v -1.09030175 -2.0817902 -0.0275237
v -1.03859674 -2.48297166 0.03207798
v -1.02813017 -2.42566752 0.42581501
v -1.06669187 -2.02175998 0.39609971
v -0.93073225 -2.54770183 -0.39279475
v -0.90277677 -2.94083905 -0.29141989
v -0.99472165 -2.86954402 0.09330292
v -0.96422046 -3.27623987 0.16639007
v -0.96075606 -3.22849774 0.48917251
v -0.99346619 -2.81794047 0.4523561
v -0.87996834 -3.35114359 -0.18072183
v -0.85447818 -3.76922273 -0.0921952
v -0.93777614 -3.7118287 0.22083774
v -0.91152632 -4.14858484 0.25119203
v -0.90198552 -4.11429977 0.52371984
v -0.92922818 -3.66909146 0.51403087
v -0.83085519 -4.18316221 -0.0306872
v -0.81135499 -4.59720706 0.00189836
v -0.89105111 -4.57550048 0.26702541
v -0.884965 -4.9905405 0.278429
v -0.85484117 -4.98772716 0.53455299
v -0.87792253 -4.55697059 0.53009021
v -0.80595374 -5.00750827 0.01140937
v -0.81821644 -5.42962551 -0.01430047
v -0.89433813 -5.4116826 0.28076744
v -0.89410281 -5.8591113 0.27495381
v -0.81036365 -5.85499525 0.53641432
v -0.83699107 -5.41424942 0.53508645
v -0.8190667 -5.88591384 -0.05392948
v -0.76835697 -6.34261417 -0.06395764
v -0.86548447 -6.30536747 0.2830801
v -0.84563338 -6.74060916 0.29698094
v -0.7224937 -6.71104478 0.58180058
v -0.7598173 -6.29014587 0.5575453
v -0.69961917 -6.78858566 -0.06594184
v -0.62727481 -7.23626947 -0.05873224
v -0.83286422 -7.18910265 0.29880628
v -0.80328655 -7.65168666 0.29472664
v -0.74206531 -7.60015916 0.59511351
v -0.72188633 -7.14195346 0.58934009
v -0.58838349 -7.68260955 -0.03059568
v -0.59214425 -8.12344741 0.0218854
v -0.77050918 -8.10694217 0.31826347
v -0.76514452 -8.54392337 0.38006675
v -0.70541834 -8.53169059 0.65991514
v -0.73296403 -8.07469177 0.61212241
v -0.63280773 -8.55773353 0.089629
v -0.66040223 -8.99005031 0.13249912
v -0.77284544 -8.97719764 0.44097775
v -0.74476897 -9.39332485 0.47104081
v -0.6534506 -9.36707782 0.72654527
v -0.68494457 -8.96135711 0.71327972
v -0.64617824 -9.4174118 0.15536312
v -0.57513314 -9.8631649 0.15690484
v -0.70865154 -9.81116008 0.46184191
v -0.65968012 -10.25573062 0.41098791
v -0.61356502 -10.19733333 0.7289052
v -0.62177264 -9.77491378 0.73153585
v -0.45581531 -10.30309391 0.14801287
v -0.38673555 -10.73116874 0.18280831
v -0.58264619 -10.73112392 0.39068701
v -0.45637348 -11.55672931 0.55975884
v -0.47290965 -11.70668315 0.96026355
v -0.61357682 -10.73061466 0.73701906
v -0.33547172 -11.51021003 0.3302491
v -0.39790675 -10.8005867 1.01794898
v -0.4534291 -10.17538738 0.91879719
v -0.22045718 -10.89583587 1.19443202
v -0.30153638 -10.18353271 1.05777168
v -0.34210631 -9.77535533 1.028427
v -0.49583533 -9.76556873 0.88778734
v -0.38635686 -9.35308551 1.01078879
v -0.55022794 -9.3568573 0.86812782
v -0.42192405 -8.93206214 0.98524475
v -0.58196699 -8.94952487 0.8608337
v -0.38822576 -8.49303722 0.9659692
v -0.57371372 -8.51636505 0.83283788
v -0.34219047 -8.01101398 0.94552999
v -0.5568065 -8.03716278 0.79418951
v -0.33977058 -7.53382492 0.92193597
v -0.53497576 -7.55385112 0.77128374
v -0.36719256 -7.10339069 0.91403198
v -0.52898836 -7.11273098 0.77315926
v -0.4189524 -6.70434045 0.91501838
v -0.55985742 -6.70219421 0.77883899
v -0.4957292 -6.30091428 0.92232799
v -0.63112157 -6.29327487 0.76930677
v -0.57781463 -5.85785388 0.94094705
v -0.70482689 -5.85648441 0.75784403
v -0.61471098 -5.40021848 0.97105521
v -0.73850041 -5.40738582 0.76683008
v -0.62090879 -4.96341943 0.98139363
v -0.75107026 -4.97485065 0.77757525
v -0.62453037 -4.52956771 0.97611665
v -0.77243852 -4.54102754 0.78353804
v -0.64989018 -4.0861144 0.97214078
v -0.81323546 -4.09309864 0.78374081
v -0.70021671 -3.62969303 0.97006452
v -0.85333961 -3.63672065 0.77771151
v -0.72325027 -3.17146301 0.95625352
v -0.8685351 -3.18778705 0.76640731
v -0.72515827 -2.75764799 0.9267376
v -0.87101256 -2.77591157 0.75459283
v -0.73110222 -2.37851667 0.90217804
v -0.87720185 -2.38453126 0.74137544
v -0.73312586 -1.9904927 0.88468802
v -0.88912308 -1.98781216 0.71910762
v -0.73975205 -1.59237861 0.87727958
v -0.91064125 -1.60183894 0.69901162
v -0.76288366 -1.14723968 0.85744756
v -0.95335477 -1.18942749 0.66748243
v -0.74935507 -0.74571418 0.81098473
v -0.94423383 -0.78700524 0.65021127
v -0.80245804 -0.49696147 0.80501312
v 0.00001882 -13.51016712 1.20822548
v -0.02881718 -13.92771244 0.5217849
v 0.51826322 0.52386081 0.55637633
v 0.65125161 0.48641786 0.36909246
v 0.00293863 -13.78000831 1.18409633
v 0.00571286 -13.79923152 1.14873802
v 0.00000829 -13.59973335 1.19974005
v 0.01576229 -13.97347164 0.51958894
v 0.38271415 0.53997123 0.57221823
v 0.41113367 0.53354448 0.54302525
v 0.63113665 0.5110858 0.51829296
v 0.67768621 0.5220673 0.61982888
v 0.4216161 0.5387789 0.63124364
v 0.87537998 0.52322155 0.52025204
v 0.45573571 0.51826494 0.4631223
v 0.69915926 0.47208008 0.29556554
v 0.91914731 0.50285363 0.36300167
v 0.39928838 0.49414983 0.27405118
v 0.27172237 0.53946769 0.4911192
v 0.24197934 0.5519967 0.5624488
v 0.24265138 0.55645251 0.59818673
v 0.25111699 0.55711537 0.6143614
v 0.28797131 0.53625387 0.71638047
v 0.48459872 0.45318812 1.05804181
v 0.56442433 0.21013632 1.25074529
v 0.49591982 -0.24256944 1.12745058
v 0.46699166 -0.48719912 1.0264765
v 0.4555169 -0.7148413 0.99783718
v 0.4654974 -1.08876061 1.04227018
v 0.45565199 -1.5341134 1.03009533
v 0.46036672 -1.95970153 1.02987933
v 0.47350248 -2.36207079 1.04692232
v 0.47170558 -2.75060987 1.06870353
v 0.43884745 -3.16725206 1.10267972
v 0.39553394 -3.62556576 1.11299657
v 0.36176055 -4.07038402 1.09248948
v 0.35331299 -4.49871254 1.08762753
v 0.35225558 -4.93234539 1.10754907
v 0.33294999 -5.37614679 1.12522208
v 0.29932957 -5.84128856 1.09993135
v 0.25463372 -6.29822921 1.063519
v 0.20853233 -6.7156496 1.04241681
v 0.16277769 -7.12427902 1.03544092
v 0.1323302 -7.55252122 1.03932368
v 0.13573052 -8.00602531 1.05950093
v 0.17373794 -8.4738655 1.09400439
v 0.19916386 -8.92871379 1.13243842
v 0.17906501 -9.36055851 1.15792703
v 0.172719 -9.78649807 1.13826274
v 0.16712151 -10.20073604 1.13075983
v 0.11257673 -10.96587276 1.26192331
v 0.12896384 -12.43761825 1.42175316
v 0.01586261 -13.56768703 1.31475329
v 0.2549054 -12.30321788 1.43179595
v 0.04284201 -13.49945354 1.28705143
v 0.38955786 -12.00616073 1.33454084
v 0.09426309 -13.37737846 1.24173009
v 0.00705951 -13.87061977 1.12402117
v 0.00001373 -13.61045837 1.19571566
v 0.25091615 -13.15061569 1.09856367
v 0.01133214 -14.00192642 1.05000138
v 0.00073758 -13.67799186 1.00536751
v 0.04223026 -13.97030258 0.86251318
v 0.00224236 -14.00025177 0.67033439
v 0.12939712 -13.72636127 0.62165498
v 0.53428441 -12.93949413 0.82556444
v 0.41968679 -12.79300022 0.5952242
v 0.19432143 -12.76141643 0.47467437
v 0.08603031 -13.68602275 0.50743556
v 0.18875734 -11.51104831 0.21854127
v 0.20325124 -10.737751 0.08989347
v 0.23412965 -10.32823371 0.02286588
v 0.30914676 -9.89639377 -0.03866032
v 0.36367896 -9.44332599 -0.06757867
v 0.38551619 -9.00093841 -0.09206297
v 0.36270996 -8.54772758 -0.12064791
v 0.30642595 -8.10459137 -0.15153837
v 0.28876841 -7.68242406 -0.19205685
v 0.30990764 -7.26219272 -0.24198199
v 0.36948725 -6.83440494 -0.29434517
v 0.44543793 -6.3945198 -0.33367338
v 0.50915759 -5.94531726 -0.36050671
v 0.54832273 -5.48269701 -0.35974982
v 0.5591855 -5.0350728 -0.34963384
v 0.56012153 -4.61816549 -0.35878986
v 0.57250493 -4.21960401 -0.39503485
v 0.57673102 -3.82579731 -0.46681928
v 0.57823628 -3.41906189 -0.57038366
v 0.5731095 -2.99100279 -0.68255484
v 0.5656712 -2.5665965 -0.77464246
v 0.55349177 -2.15739274 -0.84820526
v 0.5430811 -1.75853693 -0.92585003
v 0.55357265 -1.34379065 -1.02051401
v 0.58600068 -0.92180597 -1.14370441
v 0.6140539 -0.46883213 -1.25909209
v 0.62419372 -0.09742461 -1.22939908
v 0.66271776 0.13089941 -1.11573374
v 0.77932262 0.31219074 -0.78265017
v 0.64282482 0.41228967 -0.14855311
v 1.1352216 -0.25330248 -0.89097356
v 1.23407506 0.0685264 -0.8307867
v 1.3366369 0.57289874 -0.55559355
v 1.36767745 -0.33378452 -0.24639904
v 1.42330992 0.02391672 -0.14427897
v 1.33986818 0.39636999 0.06627069
v 1.27248704 0.01409819 0.37499055
v 1.22425818 0.35898098 0.42794889
v 1.08411753 0.54849964 0.47299107
v 1.14132869 0.54042404 0.23296269
v 1.04749298 0.49291011 -0.0171771
v 1.10701191 0.41912627 0.6793304
v 0.92476254 0.55617487 0.705522
v 0.90984505 0.5055415 0.95788323
v 0.60400581 0.50964516 0.81836569
v 0.93048727 0.08273688 0.93874824
v 1.12411499 0.04266765 0.6666665
v 1.06944131 -0.2751069 0.62676435
v 0.86150962 -0.26783356 0.86493521
v 1.25006377 -0.29233276 0.31848377
v 1.21850824 -0.55163914 0.27187752
v 1.00476729 -0.50654363 0.60821032
v 1.29086267 -0.61640751 -0.27049917
v 1.22681045 -0.9281767 -0.21162125
v 1.17888081 -0.86853826 0.30359751
v 1.10334253 -0.56152963 -0.89639985
v 1.06198763 -0.93844074 -0.79458689
v 1.02156984 -1.31028485 -0.6928671
v 1.17553818 -1.27079832 -0.1459966
v 1.13526463 -1.66482067 -0.0903396
v 1.10277342 -1.62109446 0.3645029
v 1.1421082 -1.23407888 0.32670489
v 0.99296498 -1.73342669 -0.5950545
v 0.96299225 -2.15086102 -0.49299052
v 1.09030175 -2.0817902 -0.0275237
v 1.03859674 -2.48297166 0.03207797
v 1.02813017 -2.42566752 0.42581501
v 1.06669187 -2.02175998 0.39609971
v 0.93073225 -2.54770183 -0.39279475
v 0.90277677 -2.94083905 -0.29141989
v 0.99472165 -2.86954402 0.09330292
v 0.96422046 -3.27623987 0.1663901
v 0.96075606 -3.22849774 0.48917251
v 0.99346619 -2.81794047 0.4523561
v 0.87996834 -3.35114359 -0.18072183
v 0.85447818 -3.76922273 -0.09219524
v 0.9377762 -3.7118287 0.22083774
v 0.91152632 -4.14858484 0.25119203
v 0.90198552 -4.11429977 0.52371984
v 0.92922818 -3.66909146 0.51403093
v 0.83085519 -4.18316221 -0.0306872
v 0.81135505 -4.59720706 0.00189833
v 0.89105111 -4.57550048 0.26702547
v 0.884965 -4.9905405 0.278429
v 0.85484117 -4.98772716 0.53455299
v 0.87792253 -4.55697059 0.53009021
v 0.80595374 -5.00750827 0.01140937
v 0.81821644 -5.42962551 -0.01430049
v 0.89433819 -5.4116826 0.28076744
v 0.89410281 -5.8591113 0.27495381
v 0.81036365 -5.85499525 0.53641432
v 0.83699107 -5.41424942 0.53508645
v 0.8190667 -5.88591384 -0.05392948
v 0.76835697 -6.34261417 -0.06395764
v 0.86548447 -6.30536747 0.28308013
v 0.84563338 -6.74060916 0.29698094
v 0.7224937 -6.71104478 0.58180058
v 0.7598173 -6.29014587 0.5575453
v 0.69961917 -6.78858566 -0.06594184
v 0.62727475 -7.23626947 -0.05873229
v 0.83286434 -7.18910265 0.29880625
v 0.80328649 -7.65168666 0.29472664
v 0.74206531 -7.60015916 0.59511351
v 0.72188633 -7.14195346 0.58934009
v 0.58838349 -7.68260955 -0.03059567
v 0.59214425 -8.12344741 0.0218854
v 0.77050918 -8.10694217 0.31826347
v 0.76514452 -8.54392337 0.38006675
v 0.70541834 -8.53169059 0.65991514
v 0.73296403 -8.07469177 0.61212241
v 0.63280773 -8.55773353 0.089629
v 0.66040223 -8.99005031 0.13249912
v 0.77284544 -8.97719764 0.44097775
v 0.74476897 -9.39332485 0.47104081
v 0.65345054 -9.36707782 0.72654539
v 0.68494457 -8.96135711 0.71327972
v 0.64617824 -9.4174118 0.15536312
v 0.57513314 -9.8631649 0.15690481
v 0.70865154 -9.81116008 0.46184191
v 0.65968012 -10.25573062 0.41098791
v 0.61356502 -10.19733333 0.7289052
v 0.62177264 -9.77491378 0.73153585
v 0.45581531 -10.30309391 0.14801287
v 0.38673555 -10.73116874 0.18280822
v 0.58264625 -10.73112392 0.39068701
v 0.4563736 -11.55672931 0.55975884
v 0.47290965 -11.70668315 0.96026355
v 0.61357682 -10.73061466 0.73701906
v 0.33547172 -11.51021003 0.3302491
v 0.39790675 -10.8005867 1.01794898
v 0.4534291 -10.17538738 0.91879719
v 0.22045718 -10.89583587 1.19443202
v 0.30153638 -10.18353271 1.05777168
v 0.34210631 -9.77535533 1.028427
v 0.49583533 -9.76556873 0.88778734
v 0.38635686 -9.35308551 1.01078879
v 0.55022794 -9.3568573 0.86812782
v 0.42192405 -8.93206214 0.98524475
v 0.58196699 -8.94952487 0.8608337
v 0.38822576 -8.49303722 0.9659692
v 0.57371372 -8.51636505 0.83283788
v 0.34219047 -8.01101398 0.94552999
v 0.5568065 -8.03716278 0.79418951
v 0.33977058 -7.53382492 0.92193597
v 0.53497576 -7.55385112 0.77128374
v 0.36719256 -7.10339069 0.91403198
v 0.52898836 -7.11273098 0.77315926
v 0.4189524 -6.70434045 0.91501838
v 0.55985742 -6.70219421 0.77883899
v 0.49572926 -6.30091428 0.92232799
v 0.63112157 -6.29327487 0.76930677
v 0.57781463 -5.85785388 0.94094705
v 0.70482689 -5.85648441 0.75784403
v 0.61471098 -5.40021848 0.97105521
v 0.73850041 -5.40738582 0.76683008
v 0.62090879 -4.96341943 0.98139363
v 0.75107026 -4.97485065 0.77757525
v 0.62453037 -4.52956771 0.97611665
v 0.77243852 -4.54102754 0.78353804
v 0.64989018 -4.0861144 0.97214078
v 0.81323546 -4.09309864 0.78374081
v 0.70021671 -3.62969303 0.97006452
v 0.85333961 -3.63672065 0.77771151
v 0.72325027 -3.17146301 0.95625352
v 0.8685351 -3.18778705 0.76640731
v 0.72515827 -2.75764799 0.92673748
v 0.87101256 -2.77591157 0.75459283
v 0.73110222 -2.37851667 0.90217804
v 0.87720185 -2.38453126 0.74137556
v 0.73312586 -1.9904927 0.88468802
v 0.88912308 -1.98781216 0.71910762
v 0.73975205 -1.59237861 0.87727958
v 0.91064125 -1.60183894 0.69901156
v 0.76288366 -1.14723968 0.85744756
v 0.95335477 -1.18942749 0.66748243
v 0.74935507 -0.74571418 0.81098473
v 0.94423383 -0.78700524 0.65021121
v 0.80245804 -0.49696147 0.80501312
f 1 5 6 7
f 1 7 8 9
f 1 9 10 5
f 2 11 12 13
f 3 14 15 16
f 3 17 18 14
f 3 16 19 17
f 4 16 15 20
f 4 20 21 22
f 4 22 19 16
f 23 24 25 26
f 23 21 20 24
f 25 24 27 28
f 28 27 29 30
f 30 29 31 32
f 32 31 33 34
f 34 33 35 36
f 36 35 37 38
f 38 37 39 40
f 40 39 41 42
f 42 41 43 44
f 44 43 45 46
f 46 45 47 48
f 48 47 49 50
f 50 49 51 52
f 52 51 53 54
f 54 53 55 56
f 56 55 57 58
f 58 57 59 60
f 60 59 61 62
f 62 61 63 64
f 64 63 65 66
f 66 65 67 68
f 68 67 69 70
f 70 69 71 72
f 72 71 73 74
f 74 73 75 76
f 76 75 77 78
f 78 77 79 80
f 80 79 81 82
f 82 81 83 84
f 84 83 85 86
f 86 85 87 88
f 88 87 89 90
f 90 89 91 92
f 92 91 93 94
f 94 93 5 10
f 93 91 95 96
f 93 96 6 5
f 96 95 97 98
f 96 98 99 6
f 99 100 7 6
f 99 98 101 102
f 99 102 103 100
f 103 104 105 100
f 103 102 106 107
f 103 107 108 104
f 108 107 13 12
f 107 106 109 13
f 109 106 110 111
f 109 111 112 113
f 109 113 2 13
f 113 112 114 115
f 113 115 11 2
f 114 112 116 117
f 117 116 118 119
f 119 118 120 121
f 121 120 122 123
f 123 122 124 125
f 125 124 126 127
f 127 126 128 129
f 129 128 130 131
f 131 130 132 133
f 133 132 134 135
f 135 134 136 137
f 137 136 138 139
f 139 138 140 141
f 141 140 142 143
f 143 142 144 145
f 145 144 146 147
f 147 146 148 149
f 149 148 150 151
f 151 150 152 153
f 153 152 154 155
f 155 154 156 157
f 157 156 158 159
f 159 158 160 161
f 161 160 162 163
f 163 162 164 165
f 165 164 166 167
f 167 166 168 169
f 169 168 170 171
f 171 170 172 173
f 173 172 174 175
f 170 168 176 177
f 170 177 178 172
f 177 176 179 180
f 177 180 181 178
f 181 180 182 183
f 181 183 184 185
f 181 185 186 178
f 185 184 19 22
f 185 22 21 186
f 184 183 187 188
f 184 188 17 19
f 188 187 189 190
f 188 190 18 17
f 190 189 35 33
f 190 33 31 18
f 189 191 37 35
f 189 187 192 191
f 192 193 194 191
f 192 187 183 182
f 192 182 195 193
f 195 196 197 193
f 195 182 180 179
f 195 179 198 196
f 198 199 200 196
f 198 179 176 201
f 198 201 202 199
f 202 203 204 199
f 202 201 166 164
f 202 164 162 203
f 204 205 206 207
f 204 207 200 199
f 204 203 208 205
f 208 209 210 205
f 208 203 162 160
f 208 160 158 209
f 210 211 212 213
f 210 213 206 205
f 210 209 214 211
f 214 215 216 211
f 214 209 158 156
f 214 156 154 215
f 216 217 218 219
f 216 219 212 211
f 216 215 220 217
f 220 221 222 217
f 220 215 154 152
f 220 152 150 221
f 222 223 224 225
f 222 225 218 217
f 222 221 226 223
f 226 227 228 223
f 226 221 150 148
f 226 148 146 227
f 228 229 230 231
f 228 231 224 223
f 228 227 232 229
f 232 233 234 229
f 232 227 146 144
f 232 144 142 233
f 234 235 236 237
f 234 237 230 229
f 234 233 238 235
f 238 239 240 235
f 238 233 142 140
f 238 140 138 239
f 240 241 242 243
f 240 243 236 235
f 240 239 244 241
f 244 245 246 241
f 244 239 138 136
f 244 136 134 245
f 246 247 248 249
f 246 249 242 241
f 246 245 250 247
f 250 251 252 247
f 250 245 134 132
f 250 132 130 251
f 252 253 254 255
f 252 255 248 247
f 252 251 256 253
f 256 257 258 253
f 256 251 130 128
f 256 128 126 257
f 258 259 260 261
f 258 261 254 253
f 258 257 262 259
f 262 263 264 259
f 262 257 126 124
f 262 124 122 263
f 264 265 266 267
f 264 267 260 259
f 264 263 268 265
f 268 269 270 265
f 268 263 122 120
f 268 120 118 269
f 270 271 272 273
f 270 273 266 265
f 270 269 274 271
f 274 111 110 271
f 274 269 118 116
f 274 116 112 111
f 273 272 97 275
f 273 275 276 266
f 276 275 277 278
f 276 278 279 280
f 276 280 267 266
f 280 279 281 282
f 280 282 260 267
f 282 281 283 284
f 282 284 261 260
f 284 283 285 286
f 284 286 254 261
f 286 285 287 288
f 286 288 255 254
f 288 287 289 290
f 288 290 248 255
f 290 289 291 292
f 290 292 249 248
f 292 291 293 294
f 292 294 242 249
f 294 293 295 296
f 294 296 243 242
f 296 295 297 298
f 296 298 236 243
f 298 297 299 300
f 298 300 237 236
f 300 299 301 302
f 300 302 230 237
f 302 301 303 304
f 302 304 231 230
f 304 303 305 306
f 304 306 224 231
f 306 305 307 308
f 306 308 225 224
f 308 307 309 310
f 308 310 218 225
f 310 309 311 312
f 310 312 219 218
f 312 311 313 314
f 312 314 212 219
f 314 313 315 316
f 314 316 213 212
f 316 315 317 318
f 316 318 206 213
f 318 317 319 320
f 318 320 207 206
f 320 319 321 322
f 320 322 200 207
f 322 321 323 197
f 322 197 196 200
f 323 321 43 41
f 323 41 39 194
f 323 194 193 197
f 321 319 45 43
f 319 317 47 45
f 317 315 49 47
f 315 313 51 49
f 313 311 53 51
f 311 309 55 53
f 309 307 57 55
f 307 305 59 57
f 305 303 61 59
f 303 301 63 61
f 301 299 65 63
f 299 297 67 65
f 297 295 69 67
f 295 293 71 69
f 293 291 73 71
f 291 289 75 73
f 289 287 77 75
f 287 285 79 77
f 285 283 81 79
f 283 281 83 81
f 281 279 85 83
f 279 278 87 85
f 278 277 89 87
f 277 95 91 89
f 277 275 97 95
f 272 101 98 97
f 272 271 110 101
f 201 176 168 166
f 194 39 37 191
f 110 106 102 101
f 105 8 7 100
f 31 29 14 18
f 29 27 15 14
f 27 24 20 15
f 175 174 23 26
f 23 174 186 21
f 174 172 178 186
f 324 330 329 328
f 324 9 8 330
f 324 328 10 9
f 325 331 12 11
f 326 334 333 332
f 326 332 336 335
f 326 335 337 334
f 327 338 333 334
f 327 340 339 338
f 327 334 337 340
f 341 26 25 342
f 341 342 338 339
f 25 28 343 342
f 28 30 344 343
f 30 32 345 344
f 32 34 346 345
f 34 36 347 346
f 36 38 348 347
f 38 40 349 348
f 40 42 350 349
f 42 44 351 350
f 44 46 352 351
f 46 48 353 352
f 48 50 354 353
f 50 52 355 354
f 52 54 356 355
f 54 56 357 356
f 56 58 358 357
f 58 60 359 358
f 60 62 360 359
f 62 64 361 360
f 64 66 362 361
f 66 68 363 362
f 68 70 364 363
f 70 72 365 364
f 72 74 366 365
f 74 76 367 366
f 76 78 368 367
f 78 80 369 368
f 80 82 370 369
f 82 84 371 370
f 84 86 372 371
f 86 88 373 372
f 88 90 374 373
f 90 92 375 374
f 92 94 376 375
f 94 10 328 376
f 376 378 377 375
f 376 328 329 378
f 378 380 379 377
f 378 329 381 380
f 381 329 330 382
f 381 384 383 380
f 381 382 385 384
f 385 382 105 104
f 385 387 386 384
f 385 104 108 387
f 108 12 331 387
f 387 331 388 386
f 388 390 389 386
f 388 392 391 390
f 388 331 325 392
f 392 115 114 391
f 392 325 11 115
f 114 117 393 391
f 117 119 394 393
f 119 121 395 394
f 121 123 396 395
f 123 125 397 396
f 125 127 398 397
f 127 129 399 398
f 129 131 400 399
f 131 133 401 400
f 133 135 402 401
f 135 137 403 402
f 137 139 404 403
f 139 141 405 404
f 141 143 406 405
f 143 145 407 406
f 145 147 408 407
f 147 149 409 408
f 149 151 410 409
f 151 153 411 410
f 153 155 412 411
f 155 157 413 412
f 157 159 414 413
f 159 161 415 414
f 161 163 416 415
f 163 165 417 416
f 165 167 418 417
f 167 169 419 418
f 169 171 420 419
f 171 173 421 420
f 173 175 422 421
f 420 424 423 419
f 420 421 425 424
f 424 427 426 423
f 424 425 428 427
f 428 430 429 427
f 428 432 431 430
f 428 425 433 432
f 432 340 337 431
f 432 433 339 340
f 431 435 434 430
f 431 337 335 435
f 435 437 436 434
f 435 335 336 437
f 437 346 347 436
f 437 336 345 346
f 436 347 348 438
f 436 438 439 434
f 439 438 441 440
f 439 429 430 434
f 439 440 442 429
f 442 440 444 443
f 442 426 427 429
f 442 443 445 426
f 445 443 447 446
f 445 448 423 426
f 445 446 449 448
f 449 446 451 450
f 449 417 418 448
f 449 450 416 417
f 451 454 453 452
f 451 446 447 454
f 451 452 455 450
f 455 452 457 456
f 455 415 416 450
f 455 456 414 415
f 457 460 459 458
f 457 452 453 460
f 457 458 461 456
f 461 458 463 462
f 461 413 414 456
f 461 462 412 413
f 463 466 465 464
f 463 458 459 466
f 463 464 467 462
f 467 464 469 468
f 467 411 412 462
f 467 468 410 411
f 469 472 471 470
f 469 464 465 472
f 469 470 473 468
f 473 470 475 474
f 473 409 410 468
f 473 474 408 409
f 475 478 477 476
f 475 470 471 478
f 475 476 479 474
f 479 476 481 480
f 479 407 408 474
f 479 480 406 407
f 481 484 483 482
f 481 476 477 484
f 481 482 485 480
f 485 482 487 486
f 485 405 406 480
f 485 486 404 405
f 487 490 489 488
f 487 482 483 490
f 487 488 491 486
f 491 488 493 492
f 491 403 404 486
f 491 492 402 403
f 493 496 495 494
f 493 488 489 496
f 493 494 497 492
f 497 494 499 498
f 497 401 402 492
f 497 498 400 401
f 499 502 501 500
f 499 494 495 502
f 499 500 503 498
f 503 500 505 504
f 503 399 400 498
f 503 504 398 399
f 505 508 507 506
f 505 500 501 508
f 505 506 509 504
f 509 506 511 510
f 509 397 398 504
f 509 510 396 397
f 511 514 513 512
f 511 506 507 514
f 511 512 515 510
f 515 512 517 516
f 515 395 396 510
f 515 516 394 395
f 517 520 519 518
f 517 512 513 520
f 517 518 521 516
f 521 518 389 390
f 521 393 394 516
f 521 390 391 393
f 520 522 379 519
f 520 513 523 522
f 523 525 524 522
f 523 527 526 525
f 523 513 514 527
f 527 529 528 526
f 527 514 507 529
f 529 531 530 528
f 529 507 508 531
f 531 533 532 530
f 531 508 501 533
f 533 535 534 532
f 533 501 502 535
f 535 537 536 534
f 535 502 495 537
f 537 539 538 536
f 537 495 496 539
f 539 541 540 538
f 539 496 489 541
f 541 543 542 540
f 541 489 490 543
f 543 545 544 542
f 543 490 483 545
f 545 547 546 544
f 545 483 484 547
f 547 549 548 546
f 547 484 477 549
f 549 551 550 548
f 549 477 478 551
f 551 553 552 550
f 551 478 471 553
f 553 555 554 552
f 553 471 472 555
f 555 557 556 554
f 555 472 465 557
f 557 559 558 556
f 557 465 466 559
f 559 561 560 558
f 559 466 459 561
f 561 563 562 560
f 561 459 460 563
f 563 565 564 562
f 563 460 453 565
f 565 567 566 564
f 565 453 454 567
f 567 569 568 566
f 567 454 447 569
f 569 444 570 568
f 569 447 443 444
f 570 350 351 568
f 570 441 349 350
f 570 444 440 441
f 568 351 352 566
f 566 352 353 564
f 564 353 354 562
f 562 354 355 560
f 560 355 356 558
f 558 356 357 556
f 556 357 358 554
f 554 358 359 552
f 552 359 360 550
f 550 360 361 548
f 548 361 362 546
f 546 362 363 544
f 544 363 364 542
f 542 364 365 540
f 540 365 366 538
f 538 366 367 536
f 536 367 368 534
f 534 368 369 532
f 532 369 370 530
f 530 370 371 528
f 528 371 372 526
f 526 372 373 525
f 525 373 374 524
f 524 374 375 377
f 524 377 379 522
f 519 379 380 383
f 519 383 389 518
f 448 418 419 423
f 441 438 348 349
f 389 383 384 386
f 105 382 330 8
f 345 336 332 344
f 344 332 333 343
f 343 333 338 342
f 175 26 341 422
f 341 339 433 422
f 422 433 425 421

 