# File exported by ZBrush version 2025
# www.zbrush.com
g ZBrushPolyMesh3D
#Vertex Count 676
#Face Count 672
#Auto scale x=1.000000 y=1.000000 z=1.000000
#Auto offset x=0.000000 y=0.000000 z=0.000000
v 0.15505045 0.85403782 0.49569922
v -0.03402792 -5.76098585 1.39017057
v 0.03369029 -5.77095794 1.32113575
v 0.07645074 -5.7372179 1.24931752
v -0.00601985 0.88279271 0.46967867
v -0.0748163 0.73509782 0.66022419
v 0.1994287 0.73015356 0.63808584
v 0.28318363 0.88577669 0.36755347
v 0.11065968 0.94879686 0.29570612
v -0.04148302 0.96262592 0.26750055
v 0.14446447 0.97954982 0.13969577
v -0.06113087 0.98777616 0.14294467
v -0.15648442 -5.44484472 1.53550052
v -0.20645307 -5.55448341 1.44434928
v -0.05563783 -5.72990226 1.43113434
v -0.02539129 -5.52113246 1.55764782
v -0.07920609 -5.74623918 1.38071382
v -0.0770527 -5.75559425 1.33893966
v -0.0201521 -5.76845598 1.37496149
v -0.00396614 -5.74350547 1.42837917
v 0.03247879 -5.7493658 1.41434967
v 0.01695223 -5.77396059 1.3398993
v -0.0238316 -5.76528787 1.28203547
v 0.01984502 -5.76111125 1.26810002
v 0.08164975 -5.75267744 1.31414246
v 0.07922202 -5.75218963 1.35746443
v 0.03173232 -5.63066053 1.09139239
v 0.1378192 -5.62044572 1.12951445
v 0.21363914 -5.60329723 1.21306645
v 0.26582282 0.87601709 -0.39224723
v 0.09259563 0.91901308 -0.38233822
v 0.09663609 0.97982287 -0.17516256
v 0.33094018 0.91211926 -0.24048571
v -0.25289505 0.89011067 -0.3731088
v -0.30758619 0.92517763 -0.22201596
v -0.07801646 0.98237496 -0.16964894
v -0.08178412 0.92337715 -0.3746868
v -0.14708998 0.65487617 -0.65415108
v -0.39595192 0.66702985 -0.5399394
v 0.13206343 0.647731 -0.66079896
v 0.15883955 0.24759772 -0.76526325
v -0.20164625 0.25509229 -0.75537639
v 0.38346484 0.65040177 -0.55896765
v 0.49037247 0.26961961 -0.62494689
v 0.54871386 -0.121942 -0.61315149
v 0.1744252 -0.15263138 -0.77316802
v 0.56894904 0.67986553 -0.35471931
v 0.72889643 0.32018509 -0.35784381
v 0.81177264 -0.06446889 -0.314518
v 0.84932524 -0.44447746 -0.26185175
v 0.57320505 -0.50644332 -0.5729472
v 0.82635349 0.37791067 -0.02026847
v 0.91571986 0.00315807 0.06019083
v 0.95922869 -0.37227261 0.1264705
v 0.97454297 -0.75115156 0.18728101
v 0.86304622 -0.82442784 -0.20083096
v 0.8471964 0.0629926 0.43947547
v 0.88913977 -0.30904793 0.51877564
v 0.90440768 -0.68850791 0.57576221
v 0.90367746 -1.07004678 0.62770915
v 0.97174572 -1.13424837 0.248621
v 0.65008825 -0.26836162 0.84678256
v 0.66395849 -0.64717286 0.90086245
v 0.66457402 -1.02383399 0.94517934
v 0.65724498 -1.39792752 0.99216234
v 0.89261066 -1.45038366 0.68408906
v 0.28149649 -0.62819331 1.1021384
v 0.2812533 -0.99960327 1.14250171
v 0.27857479 -1.36708068 1.1844989
v 0.27516749 -1.73442292 1.23611843
v 0.64547008 -1.76963651 1.04858636
v -0.16700866 -0.99665141 1.16658115
v -0.16706946 -1.36339998 1.20779728
v -0.16586303 -1.73014104 1.25909245
v -0.16369967 -2.09946012 1.31549143
v 0.27059215 -2.10418129 1.293311
v -0.57516849 -1.38773691 1.05305945
v -0.56559783 -1.75828242 1.10745644
v -0.55342131 -2.13026166 1.1692599
v -0.53269881 -2.50632071 1.22595381
v -0.15784114 -2.47301554 1.36398065
v -0.83455973 -1.81204283 0.82772761
v -0.81365555 -2.18712902 0.89940738
v -0.78358161 -2.56504941 0.96872216
v -0.74668514 -2.94426894 1.03578233
v -0.50589734 -2.88399982 1.28176665
v -0.91466629 -2.25953221 0.5585314
v -0.88060253 -2.63581275 0.64270412
v -0.84041959 -3.01312398 0.72352421
v -0.79496717 -3.38962149 0.8019433
v -0.70416528 -3.32293558 1.09938073
v -0.81456273 -2.7079873 0.29874292
v -0.7787379 -3.08104991 0.39568904
v -0.7375884 -3.45373868 0.49183079
v -0.68681687 -3.82584834 0.59002727
v -0.73808658 -3.7629919 0.87846374
v -0.56494832 -3.13843059 0.11239168
v -0.53665649 -3.50822758 0.22317814
v -0.50109851 -3.87851285 0.34042877
v -0.45775535 -4.2482748 0.47165411
v -0.62695878 -4.19714117 0.69895267
v -0.22381249 -3.5418148 0.05840946
v -0.21009817 -3.91060423 0.18704247
v -0.19250889 -4.27858066 0.33153444
v -0.1716303 -4.64035749 0.49473139
v -0.4070011 -4.61235523 0.61985588
v 0.12593761 -3.91454601 0.16873158
v 0.11320183 -4.28211069 0.31434166
v 0.09818768 -4.6438713 0.47884601
v 0.0805721 -4.99395322 0.66170543
v -0.14752186 -4.99100399 0.67637157
v 0.39635723 -4.25825929 0.42503809
v 0.34901347 -4.62234401 0.5758903
v 0.2935709 -4.97540187 0.74315363
v 0.22574397 -5.31369781 0.92572748
v 0.05860339 -5.32759475 0.862553
v 0.52652323 -4.57889509 0.76170092
v 0.44645714 -4.93766737 0.90232247
v 0.34765395 -5.28406906 1.05322706
v 0.50964272 -4.88635921 1.09955656
v 0.39787748 -5.24440431 1.21009314
v 0.24182261 -5.58201265 1.31175386
v 0.37381884 -5.19983005 1.36909031
v 0.22600948 -5.56055498 1.40787494
v 0.06246485 -5.75062179 1.39123606
v -0.00188479 -5.77328681 1.35758209
v 0.16760648 -5.54158353 1.49240994
v 0.27869376 -5.15768861 1.50435018
v 0.12529091 -5.12918996 1.58963
v 0.07754451 -5.52995586 1.54480052
v -0.0546746 -5.12436342 1.60446381
v 0.15360078 -4.73832178 1.57375514
v -0.07949417 -4.73288726 1.58920812
v -0.29611158 -4.76074361 1.51062345
v -0.2261815 -5.14590501 1.54383528
v -0.44837206 -4.8115344 1.3563863
v -0.3478643 -5.18643808 1.42042017
v -0.50988191 -4.86968183 1.161394
v -0.39734286 -5.23193454 1.26485478
v -0.23461793 -5.5846672 1.34822225
v -0.37117964 -5.27413797 1.10267746
v -0.22178976 -5.60550212 1.24546265
v -0.27202695 -5.30700016 0.96252489
v -0.16562461 -5.62146854 1.15891718
v -0.05679295 -5.76205539 1.30573833
v -0.07688048 -5.6304779 1.10367047
v -0.11779753 -5.32534265 0.87577301
v -0.3463284 -4.96672105 0.78356313
v -0.47495201 -4.92403221 0.95881098
v -0.5575878 -4.56427574 0.82280284
v -0.59887045 -4.50413322 1.05709087
v -0.67360824 -4.13453054 0.96149122
v -0.52822834 -4.44078016 1.28271412
v -0.59463828 -4.06958484 1.21454751
v -0.65218871 -3.69737458 1.15654206
v -0.39742848 -4.01365661 1.41641163
v -0.43718087 -3.63936233 1.37858665
v -0.4741531 -3.26178097 1.33564055
v -0.12592451 -3.60593009 1.49565255
v -0.13827422 -3.22565746 1.46010172
v -0.14933608 -2.84819126 1.41249668
v 0.2330423 -3.23149943 1.44064855
v 0.24821054 -2.8537929 1.39255464
v 0.26135 -2.4782927 1.34319484
v 0.57943081 -2.89779424 1.22861313
v 0.60830241 -2.51930642 1.17120969
v 0.63136088 -2.14238691 1.11197245
v 0.82173109 -2.5815432 0.89435708
v 0.85323625 -2.20362377 0.82167226
v 0.87495702 -1.82764184 0.7490428
v 0.91414755 -2.27734208 0.47528806
v 0.93994599 -1.89896309 0.39161294
v 0.95947152 -1.51751196 0.31576305
v 0.83189857 -1.97174751 0.03239856
v 0.84953057 -1.58952856 -0.05349305
v 0.86039453 -1.20616793 -0.1308826
v 0.57305949 -1.65144586 -0.35531374
v 0.58075833 -1.26969969 -0.44008895
v 0.58180505 -0.88823175 -0.51357609
v 0.17900596 -1.30523574 -0.60665345
v 0.180719 -0.9234029 -0.681719
v 0.17992641 -0.54011076 -0.73933309
v -0.25790521 -0.91944479 -0.66471701
v -0.25009515 -0.536228 -0.72410541
v -0.23413048 -0.14831093 -0.76015055
v -0.62953007 -0.49577084 -0.52943146
v -0.59575629 -0.11134091 -0.57678705
v -0.52351945 0.28567591 -0.59790557
v -0.83912915 -0.05013587 -0.25908309
v -0.7465071 0.33460059 -0.31990912
v -0.57501912 0.6952455 -0.32700684
v -0.82576739 0.39240941 0.03911996
v -0.65233886 0.72234159 -0.0379327
v -0.3766013 0.92597127 -0.02792482
v -0.58243495 0.74264431 0.28185287
v -0.348138 0.91535198 0.20215453
v -0.08465587 0.99630034 -0.01085032
v 0.12729479 0.99162626 -0.02008209
v 0.40430992 0.91238635 -0.06058801
v 0.39647442 0.90365839 0.16167856
v 0.61732971 0.7308188 0.220428
v 0.65466177 0.71201747 -0.08143273
v 0.45228621 0.73143422 0.48499822
v 0.56189996 0.45290163 0.6312251
v 0.76914942 0.42515632 0.32941353
v 0.24177312 0.46623051 0.81460028
v 0.26550865 0.12268669 0.9577676
v 0.61845123 0.10356142 0.76011312
v -0.11849124 0.47092431 0.84046644
v -0.14283771 0.12595816 0.98507922
v -0.1564686 -0.24914652 1.07514321
v 0.27683112 -0.25129443 1.04881596
v -0.47497588 0.46509638 0.69682067
v -0.52933669 0.11332222 0.829979
v -0.56115454 -0.26054266 0.91554725
v -0.57694882 -0.63943332 0.9671601
v -0.16393244 -0.62629133 1.12733495
v -0.80563151 0.07778897 0.52341252
v -0.84649896 -0.29517406 0.60449922
v -0.86222398 -0.67518776 0.66058534
v -0.86206883 -1.05679845 0.71005964
v -0.58044707 -1.01523912 1.00816166
v -0.95939868 -0.35574895 0.20816101
v -0.97439402 -0.73509854 0.2718673
v -0.9720093 -1.11836767 0.33347079
v -0.95966631 -1.50132525 0.39984497
v -0.85141402 -1.43596124 0.76418823
v -0.89895713 -0.80906879 -0.12951059
v -0.8973295 -1.19097375 -0.05743087
v -0.88737422 -1.57433188 0.0209842
v -0.8701905 -1.95623469 0.10746672
v -0.93997061 -1.88193821 0.47513991
v -0.64633399 -1.25851273 -0.38941833
v -0.6412782 -1.64027619 -0.30297091
v -0.63010948 -2.02081894 -0.20860503
v -0.61326336 -2.39737057 -0.10613216
v -0.84616911 -2.33439946 0.20156449
v -0.26104819 -1.68180716 -0.49986481
v -0.25800395 -2.06067562 -0.40190494
v -0.25205558 -2.43564438 -0.29453799
v -0.24387875 -2.80645823 -0.17991358
v -0.59049236 -2.76909995 0.00214315
v 0.17000646 -2.06466341 -0.42087635
v 0.16346782 -2.43968868 -0.31425383
v 0.15540593 -2.81048202 -0.19959704
v 0.14685495 -3.17797946 -0.08008043
v -0.2343544 -3.17407846 -0.06092175
v 0.54340201 -2.40841579 -0.15961068
v 0.5209546 -2.78011012 -0.05121385
v 0.49600181 -3.14927887 0.05984062
v 0.46904361 -3.51874637 0.17145465
v 0.13749516 -3.54576301 0.0395452
v 0.77621424 -2.72357344 0.2237627
v 0.74121171 -3.09604215 0.32200795
v 0.70097875 -3.46837759 0.41947242
v 0.65186834 -3.84038114 0.52066725
v 0.43618449 -3.88879275 0.29090952
v 0.8400709 -3.02985835 0.64356035
v 0.79444861 -3.40609574 0.72364485
v 0.73812228 -3.779459 0.803366
v 0.6735447 -4.15181827 0.89064741
v 0.59370482 -4.21206474 0.633228
v 0.74080395 -3.33971691 1.02800774
v 0.68745887 -3.71396541 1.08785235
v 0.62805622 -4.08660888 1.1495608
v 0.55994874 -4.4584589 1.22068178
v 0.59868961 -4.52154874 0.99006187
v 0.5052824 -3.65335011 1.32822525
v 0.46200162 -4.02703476 1.36894953
v 0.41237333 -4.39953804 1.41792869
v 0.35269218 -4.77456951 1.46889627
v 0.47765034 -4.82880687 1.29879152
v 0.19672258 -3.98767328 1.505005
v 0.17685823 -4.36043453 1.53962624
v -0.11309582 -3.98243236 1.52242314
v -0.09825286 -4.3551383 1.55601739
v -0.3514699 -4.38560342 1.46272933
v 0.21545261 -3.61170482 1.47689211
v 0.54533988 -3.27603077 1.28377842
v 0.78416889 -2.96115422 0.96275597
v 0.88013809 -2.65320253 0.56096899
v 0.80762547 -2.35020566 0.1260942
v 0.56067144 -2.03186702 -0.26173836
v 0.17513531 -1.68602359 -0.51896017
v -0.26049625 -1.30110037 -0.5886811
v -0.64435523 -0.87720245 -0.46538201
v -0.88196754 -0.42933449 -0.19606636
v -0.91520988 0.01963088 0.13442052
v -0.73090839 0.43958467 0.40600836
v -0.37460699 0.74048161 0.53885543
v -0.20534768 0.89942699 0.38584309
v -0.65154367 1.93943417 -0.77556449
v -0.97746408 2.00615286 -0.06264514
v 1.1760472 0.97796285 -0.64928984
v -0.90678274 3.69781231 -0.28186446
v -0.30818378 1.81433749 1.2993232
v -1.33993339 1.78859233 -0.58502864
v 0.43477284 1.86555028 0.07503454
v 1.08040285 1.6811645 -0.6314553
v -1.34533262 1.41042494 -0.89468032
v -0.57173311 3.8206563 -0.45092904
v 0.52627724 1.46705436 0.46855068
v -0.31244537 1.47162473 1.4685502
v 0.09376408 1.67653656 -0.87444376
v -0.61337602 3.94429302 -0.13545569
v -0.79571312 3.88426756 -0.06664332
v 0.05821902 -1.17870259 -0.34846907
v 0.01347653 -0.50032281 -1.10669612
v 0.95761984 1.41434466 0.09187685
v -1.00557816 1.81556844 -0.82382971
v -1.04212236 1.88107109 -0.66520983
v -0.84667533 1.97014391 -0.5946632
v -0.50623679 1.66788673 -0.97099047
v -0.94255524 1.62279057 -0.9792698
v -0.80745714 2.16141557 -0.57379394
v -0.59353303 2.20544242 -0.71332609
v -0.24592682 2.22816705 -0.71705985
v -0.14386248 1.98386311 -0.77434712
v -1.00100147 1.77625167 -0.22258676
v -1.09031796 1.54004764 -0.10799767
v -1.01816225 1.66658651 0.08098842
v -0.99537926 1.79359591 0.29968461
v -0.97476226 2.09599065 0.19952549
v -0.96008968 2.48260736 0.06662843
v -0.96696096 2.43368792 -0.13265755
v -0.91240191 2.09524273 -0.34844377
v -0.9292429 1.92306506 -0.40832343
v -0.91350621 2.440912 -0.35282555
v 1.16319978 0.7737025 -0.57066142
v 1.0486921 0.74895066 -0.82738691
v 1.10167396 1.0495975 -0.82493227
v 1.22270047 1.10991859 -0.53064012
v 1.2318058 0.87265455 -0.34585315
v 1.15145742 1.28137373 -0.73455548
v -0.87099629 3.77007865 -0.33161449
v -0.86975759 3.50242972 -0.40276575
v -0.91122764 3.48725175 -0.28609237
v -0.91463768 3.48823308 -0.16336189
v -0.91165435 3.74254798 -0.2093295
v -0.86914736 3.85097885 -0.26098173
v -0.52927577 1.67213583 1.30006027
v -0.47778937 1.61539912 1.39204049
v -0.22317688 1.78959798 1.35315179
v -0.25274953 1.85008907 1.19635617
v -0.51242137 1.72204637 1.16915845
v -0.11359703 1.84252297 1.25937104
v -1.41727817 1.61774504 -0.4931032
v -1.18063664 1.69762647 -0.36084276
v -1.09575641 1.84084689 -0.49806758
v -1.3377614 1.77728939 -0.71840649
v -1.49134111 1.54553556 -0.66248649
v 0.32994037 1.93842387 0.33327645
v 0.38565218 1.66749012 0.6406095
v 0.24810607 2.25655698 -0.05400163
v 0.20543506 2.28141212 0.1639962
v 0.36024847 1.99166834 -0.3292852
v 0.19607926 2.25776648 -0.32798457
v 0.63006639 1.73547196 -0.10225203
v 0.53179395 1.83959221 -0.40170586
v 0.73089003 1.51194119 0.13779044
v 1.16477978 1.5791707 -0.46790298
v 1.17650449 1.44817102 -0.59854608
v 1.06901907 1.5938729 -0.76427382
v 0.89579993 1.70403134 -0.81633311
v 0.97414815 1.77610755 -0.59869515
v 1.06288683 1.69004845 -0.35524717
v -1.43472051 1.48986005 -0.79764908
v -1.28797388 1.70441997 -0.84553039
v -1.22057223 1.52997589 -0.95396256
v -1.33883154 1.12898886 -0.90110749
v -1.46027982 1.12784361 -0.74782311
v -1.15935695 1.2044866 -1.04229521
v -0.43636676 3.64674186 -0.5351541
v -0.56687676 3.6068902 -0.57310509
v -0.67855203 3.84097623 -0.43377247
v -0.54593366 3.87806129 -0.3748379
v -0.32705432 3.67828559 -0.44582948
v -0.67023354 3.91857838 -0.34573182
v 0.68587851 1.15876388 0.53895545
v 0.83800625 1.30947387 0.2696515
v 0.45544326 1.26355528 0.91515052
v 0.55806088 0.98034077 0.8856011
v 0.34272733 1.51342868 0.97153466
v -0.35949271 1.26111042 1.49704515
v -0.12153682 1.28342306 1.46993446
v -0.15170985 1.54058671 1.43446004
v -0.4022516 1.55451285 1.44372284
v -0.55039292 1.27329206 1.45031535
v -0.19095206 1.69158244 1.40190494
v 0.17122976 1.99440264 -0.5900172
v 0.37855106 1.80199289 -0.64804917
v 0.66004359 1.74310791 -0.75614148
v 0.56334871 1.57164406 -0.93483555
v 0.08744666 1.37430679 -1.05115687
v -0.43453341 1.37440836 -1.09684658
v 0.51328104 1.33525741 -1.09490072
v -0.63071805 3.96590757 -0.20561803
v -0.71489107 3.96927332 -0.18373757
v -0.68292444 3.95070505 -0.10881959
v -0.58131843 3.84479141 0.00445685
v -0.50001853 3.87333059 -0.07633891
v -0.46648791 3.89284682 -0.19059453
v -0.74574458 3.92790412 -0.08626572
v -0.78071755 3.94520092 -0.15703003
v -0.83346051 3.89493465 -0.12445786
v -0.85136359 3.75741839 -0.04363158
v -0.77536773 3.78246378 0.01352698
v -0.67786985 3.81422972 0.03033154
v -0.11754585 -1.14553785 -0.46239522
v 0.0705434 -1.07349097 -0.65482151
v 0.26260647 -1.11020195 -0.44942969
v 0.09131141 -1.1970005 -0.06287276
v -0.2108805 -1.1632936 -0.14498256
v 0.41906404 -1.11627376 -0.09735385
v -0.12362121 -0.62639427 -1.05436682
v -0.23510874 -0.23577816 -1.19656956
v 0.0102553 -0.18941436 -1.21147954
v 0.25392824 -0.22851246 -1.16662669
v 0.17423249 -0.59213256 -1.0486294
v 0.0451923 -0.81891626 -0.94042217
v 0.96835321 1.08047139 0.29651475
v 1.08090508 1.30954873 0.05663945
v 1.10730433 1.51505637 -0.13936659
v 0.93260711 1.56373047 -0.03458419
v 0.86101961 1.72489297 -0.23609088
v 0.7621966 1.81033408 -0.50401347
v 1.18554723 1.163872 -0.01831797
v 1.21104121 1.40040898 -0.25075361
v 1.24781525 1.01173114 -0.15958416
v 1.24483454 1.25825369 -0.38525468
v 1.08605158 0.89206349 0.2189283
v 1.17532515 0.72430557 0.05858586
v 1.17934227 0.5778585 -0.16804751
v 1.06692791 0.44399496 0.26608848
v 1.0992825 0.27939149 0.01063254
v 1.03035056 0.15216903 -0.30398008
v 1.10462367 0.46768078 -0.4457297
v 0.90640747 0.0836638 -0.64182257
v 0.97899019 0.42073822 -0.75474143
v 0.74481201 0.07544975 -0.92909348
v 0.81701082 0.43643367 -1.01809477
v 0.90325373 0.80388653 -1.05743813
v 0.72578573 0.9000734 -1.20442605
v 0.78438615 1.25523603 -1.13056027
v 0.96789079 1.15241134 -1.02248573
v 0.6271516 0.49202209 -1.18988573
v 0.39600956 0.58587408 -1.27629256
v 0.47389286 1.00847733 -1.23800599
v 0.54732346 0.1077561 -1.13054072
v 0.30962425 0.17770601 -1.24263799
v 0.03206669 0.23695707 -1.29043233
v 0.08120908 0.65933495 -1.29785311
v 0.48148822 -0.26823598 -1.04270625
v 0.68188118 -0.27871772 -0.82285463
v 0.6038106 -0.61366099 -0.69430393
v 0.39426356 -0.61941409 -0.92862188
v 0.47167381 -0.90348893 -0.56547582
v 0.25908437 -0.89457368 -0.79934889
v -0.13537843 -0.95751512 -0.80539619
v -0.33209905 -1.03042352 -0.60393422
v -0.51716947 -0.7858361 -0.7542687
v -0.32282379 -0.7197954 -0.94966125
v -0.68492806 -0.44802528 -0.89556336
v -0.47904151 -0.35778158 -1.09601914
v -0.84328174 -0.07386712 -1.01826214
v -0.60529309 0.05527084 -1.20799124
v -0.31215584 0.2005075 -1.29022455
v -0.72286063 0.50061899 -1.26588285
v -0.35223138 0.64467573 -1.30568563
v -0.80022352 0.92803537 -1.22430551
v -0.37838843 1.03155922 -1.23244357
v 0.09327532 1.04768776 -1.21189177
v -0.87560659 1.31385493 -1.10953283
v -1.09001791 0.78931534 -1.10519218
v -1.27279007 0.70832377 -0.91418784
v -0.98968714 0.34578886 -1.10318887
v -1.17644548 0.26068404 -0.87366694
v -1.28973519 0.25118675 -0.63748413
v -1.387928 0.69752979 -0.72027885
v -1.014714 -0.15131969 -0.75190639
v -1.13539123 -0.15397745 -0.45665884
v -1.22684288 -0.0605963 -0.21035163
v -1.35439586 0.31382852 -0.43195396
v -0.84515935 -0.50295001 -0.60937911
v -0.96916288 -0.48382076 -0.2610155
v -1.08869171 -0.35054385 0.04102709
v -1.22129416 -0.11694622 0.2963728
v -1.30456173 0.12969782 0.00386537
v -0.80209398 -0.76257252 -0.08181729
v -0.92655807 -0.61126947 0.28099545
v -1.0742892 -0.35097071 0.57383501
v -1.15454685 -0.01590977 0.81181663
v -1.28475916 0.1857699 0.51031553
v -0.68748956 -0.81780785 0.49315002
v -0.81796568 -0.53782248 0.81983745
v -0.89380019 -0.17247521 1.05307912
v -0.91375589 0.21170929 1.21693563
v -1.13403642 0.34643504 0.98118335
v -0.45316278 -0.63753992 0.99603408
v -0.54762792 -0.25970363 1.22284531
v -0.62260669 0.13236165 1.40390718
v -0.64932262 0.5469219 1.49819719
v -0.89154601 0.59674906 1.3303405
v -0.15697372 -0.26863074 1.31537687
v -0.27980825 0.12712712 1.50675952
v -0.35748103 0.55179768 1.57675063
v -0.38248136 0.93944656 1.53953123
v -0.61934852 0.93767172 1.48398661
v 0.05883553 0.1999259 1.50020945
v -0.06285546 0.6066333 1.54067945
v -0.11183182 0.969509 1.51066947
v 0.20556835 0.69851201 1.4111011
v 0.14469987 1.03274107 1.39852762
v 0.09388781 1.33976364 1.37545442
v 0.02999681 1.58696103 1.35020577
v 0.34046191 1.12705016 1.20542347
v 0.25079837 1.41145324 1.21203625
v 0.16354824 1.63383114 1.20347261
v 0.07364185 1.77829647 1.16766071
v -0.03515646 1.7481004 1.31324112
v 0.2482378 1.68418276 0.99293834
v 0.14023596 1.80056631 0.98426026
v 0.2803384 1.80397319 0.72751683
v 0.15484213 1.89905369 0.77443641
v -0.02359726 1.92929863 0.78157907
v -0.00752579 1.86155462 0.94421416
v -0.03807983 1.84601521 1.10273575
v -0.21236559 1.82231676 0.88275688
v -0.21607372 1.82085442 1.03444051
v -0.48651063 1.71397233 0.85621118
v -0.46747714 1.71525335 1.00903546
v -0.79967629 1.58708286 0.79290515
v -0.78113663 1.53701126 0.9576053
v -0.80425691 1.46311831 1.11964178
v -1.02168178 1.25488102 0.78981727
v -1.01356744 1.14516103 0.98701739
v -0.95068645 1.04271459 1.18691456
v -0.77725637 1.37589442 1.25463485
v -0.81181335 0.96979016 1.3610394
v -0.69095504 1.308761 1.36637342
v -1.06433272 0.69559264 1.10434043
v -1.14372599 0.81669193 0.83457791
v -1.23971498 0.51181274 0.68516612
v -1.15307128 0.94647431 0.55633282
v -1.24897933 0.6694408 0.36323255
v -1.31485593 0.39225223 0.19700767
v -1.24460446 0.91456168 0.12699247
v -1.35734379 0.66818136 -0.04680517
v -1.38589799 0.4474172 -0.23595053
v -1.38346624 1.02497518 -0.18236604
v -1.46520793 0.84585315 -0.3525058
v -1.45282721 0.74427032 -0.53735601
v -1.48626482 1.27949857 -0.41685816
v -1.52308309 1.17817711 -0.59189724
v -1.29982411 1.42952418 -0.26069042
v -1.18800842 1.2361207 -0.00474369
v -1.06422913 1.39862585 0.22669573
v -1.11880123 1.13905429 0.36445087
v -1.01962888 1.36814773 0.61639618
v -1.01397204 1.54457652 0.44419437
v -0.83280646 1.68847954 0.64892816
v -0.86709666 1.87873256 0.5101279
v -0.59062725 1.94380676 0.61481547
v -0.66413217 2.21807336 0.49291935
v -0.86742681 2.17471051 0.38730597
v -0.54181069 1.77828884 0.73421144
v -0.25573778 1.87115871 0.75007844
v -0.32041946 1.99970054 0.63533109
v -0.08476516 2.06118965 0.64235752
v -0.19861844 2.29689288 0.50290763
v -0.42169779 2.25126195 0.5160799
v -0.29311719 2.62177634 0.38131415
v -0.49775809 2.59024739 0.39085391
v -0.69936788 2.56324005 0.34263587
v -0.54454648 2.93120932 0.28243148
v -0.7148121 2.907624 0.22912228
v -0.85913384 2.88743615 0.11964196
v -0.86899823 2.53280043 0.23482637
v -0.93368065 2.86060762 -0.04087244
v -0.8532176 3.21357393 0.03252372
v -0.90382796 3.19635868 -0.11148325
v -0.90367525 3.18592524 -0.26720258
v -0.93517649 2.83902597 -0.21675631
v -0.85630631 3.18908262 -0.42106246
v -0.88041377 2.83622622 -0.3979431
v -0.75453138 3.20634913 -0.55909162
v -0.75712925 2.84947347 -0.56697988
v -0.7891668 2.48251438 -0.56166243
v -0.56647902 2.87009024 -0.68496823
v -0.57193821 2.51761007 -0.69559258
v -0.33855506 2.893507 -0.70153224
v -0.29775255 2.5393753 -0.69900071
v -0.1341931 2.92261624 -0.61628866
v -0.05788828 2.56156349 -0.58475548
v 0.02928134 2.24579048 -0.56480401
v 0.09595486 2.58551406 -0.38745164
v 0.01159105 2.95336651 -0.45484706
v 0.07468054 2.98019218 -0.25615438
v 0.14983657 2.60884785 -0.1618229
v 0.05277969 2.9966731 -0.06241441
v 0.12080097 2.63159561 0.03870957
v -0.03608798 3.00172305 0.10327014
v 0.03631969 2.64844942 0.19738324
v 0.12311454 2.31370878 0.32451233
v -0.11021842 2.64626669 0.31948518
v -0.01623905 2.32639169 0.44244486
v 0.09816581 2.07336688 0.59577244
v 0.233674 2.01820564 0.493164
v -0.1829691 2.98867631 0.22622448
v -0.35975164 2.96139621 0.28394058
v -0.28067818 3.32761001 0.15273861
v -0.44202777 3.29219317 0.20355474
v -0.60229814 3.26082873 0.19578133
v -0.56386596 3.586241 0.12941767
v -0.69490867 3.55254483 0.11958853
v -0.80904227 3.52389669 0.05801859
v -0.74659031 3.23603916 0.13984668
v -0.88048595 3.50177502 -0.04450537
v -0.89533782 3.74389004 -0.12272112
v -0.85957646 3.88006854 -0.18754695
v -0.80571627 3.9345901 -0.22568921
v -0.81813812 3.89207458 -0.30058568
v -0.73458832 3.95725369 -0.25517877
v -0.75246483 3.91648674 -0.3301371
v -0.75488388 3.81574082 -0.42207816
v -0.82188946 3.78954649 -0.38395097
v -0.69174408 3.56485009 -0.55664491
v -0.79537481 3.52908968 -0.49508664
v -0.60040456 3.235641 -0.64802694
v -0.42426961 3.27268528 -0.6682111
v -0.25180411 3.30948185 -0.60897535
v -0.11850551 3.34157562 -0.48370975
v -0.25842568 3.69768238 -0.31694215
v -0.05364099 3.36330318 -0.30989933
v -0.25135856 3.69571614 -0.16059231
v -0.06264782 3.36932253 -0.12686666
v -0.31532791 3.66876936 -0.01243102
v -0.14137356 3.35828566 0.03673332
v -0.43101984 3.6268332 0.09184695
v -0.49050244 3.89358902 -0.29365328
v -0.64491045 3.95332074 -0.27614834
v 0.4198462 0.81803125 1.18344104
v 0.33368781 0.33513414 1.37588977
v 0.53351569 0.49604135 1.13383722
v 0.68336916 0.68433684 0.83029294
v 0.70973551 0.18479539 0.99836409
v 0.83311218 0.40757042 0.71520704
v 0.95449537 0.64364355 0.45321962
v 0.82421857 0.88336461 0.54205012
v 0.98541116 0.16595546 0.50072449
v 0.90057975 -0.09890678 0.75358104
v 0.97398203 -0.33746683 0.41307607
v 1.04410362 -0.02770426 0.20380477
v 0.91584527 -0.49041 0.02384325
v 0.98093748 -0.16819728 -0.1467061
v 0.78281849 -0.57633209 -0.36348655
v 0.85185086 -0.24999873 -0.50844377
v 0.77829206 -0.80294543 0.1985622
v 0.65267199 -0.88146525 -0.21681736
v 0.50693577 -1.04575717 0.32913366
v 0.49450352 -0.8490411 0.75225198
v 0.07528634 -0.94233351 0.76125645
v 0.11932667 -1.12886083 0.35262274
v 0.81610912 -0.62727266 0.61664062
v 0.71596318 -0.35397622 0.9670251
v 0.38893318 -0.53712701 1.07710778
v 0.22711214 -0.18534266 1.31606257
v -0.02695718 -0.63331985 1.08408033
v 0.52625739 -0.02402459 1.21549511
v -0.34290739 -0.93607401 0.66501259
v -0.57165724 -0.9797545 0.10238174
v -0.26185113 -1.10369622 0.26116928
v -0.47740918 -1.04192161 -0.28740873
v -0.68150383 -0.80828172 -0.45336216
v 0.83632165 1.5260818 -0.99645578
v 1.02794373 1.41419661 -0.90931636
f 1 5 6 7
f 1 8 9 5
f 10 9 11 12
f 13 14 15 16
f 2 17 18 19
f 2 20 15 17
f 2 19 21 20
f 3 22 23 24
f 3 25 26 22
f 3 24 4 25
f 4 24 27 28
f 4 28 29 25
f 30 31 32 33
f 34 35 36 37
f 37 38 39 34
f 37 36 32 31
f 37 31 40 38
f 40 41 42 38
f 40 31 30 43
f 40 43 44 41
f 44 45 46 41
f 44 43 47 48
f 44 48 49 45
f 49 50 51 45
f 49 48 52 53
f 49 53 54 50
f 54 55 56 50
f 54 53 57 58
f 54 58 59 55
f 59 60 61 55
f 59 58 62 63
f 59 63 64 60
f 64 65 66 60
f 64 63 67 68
f 64 68 69 65
f 69 70 71 65
f 69 68 72 73
f 69 73 74 70
f 74 75 76 70
f 74 73 77 78
f 74 78 79 75
f 79 80 81 75
f 79 78 82 83
f 79 83 84 80
f 84 85 86 80
f 84 83 87 88
f 84 88 89 85
f 89 90 91 85
f 89 88 92 93
f 89 93 94 90
f 94 95 96 90
f 94 93 97 98
f 94 98 99 95
f 99 100 101 95
f 99 98 102 103
f 99 103 104 100
f 104 105 106 100
f 104 103 107 108
f 104 108 109 105
f 109 110 111 105
f 109 108 112 113
f 109 113 114 110
f 114 115 116 110
f 114 113 117 118
f 114 118 119 115
f 119 29 28 115
f 119 118 120 121
f 119 121 122 29
f 122 26 25 29
f 122 121 123 124
f 122 124 125 26
f 125 126 22 26
f 125 124 127 21
f 125 21 19 126
f 127 124 123 128
f 127 128 129 130
f 127 130 20 21
f 130 129 131 16
f 130 16 15 20
f 131 129 132 133
f 131 133 134 135
f 131 135 13 16
f 135 134 136 137
f 135 137 14 13
f 137 136 138 139
f 137 139 140 14
f 140 17 15 14
f 140 139 141 142
f 140 142 18 17
f 142 141 143 144
f 142 144 145 18
f 145 126 19 18
f 145 144 146 23
f 145 23 22 126
f 146 144 143 147
f 146 147 116 27
f 146 27 24 23
f 147 143 148 111
f 147 111 110 116
f 148 143 141 149
f 148 149 150 106
f 148 106 105 111
f 150 149 138 151
f 150 151 152 101
f 150 101 100 106
f 152 151 153 154
f 152 154 155 96
f 152 96 95 101
f 155 154 156 157
f 155 157 158 91
f 155 91 90 96
f 158 157 159 160
f 158 160 161 86
f 158 86 85 91
f 161 160 162 163
f 161 163 164 81
f 161 81 80 86
f 164 163 165 166
f 164 166 167 76
f 164 76 75 81
f 167 166 168 169
f 167 169 170 71
f 167 71 70 76
f 170 169 171 172
f 170 172 173 66
f 170 66 65 71
f 173 172 174 175
f 173 175 176 61
f 173 61 60 66
f 176 175 177 178
f 176 178 179 56
f 176 56 55 61
f 179 178 180 181
f 179 181 182 51
f 179 51 50 56
f 182 181 183 184
f 182 184 185 46
f 182 46 45 51
f 185 184 186 187
f 185 187 188 42
f 185 42 41 46
f 188 187 189 190
f 188 190 191 39
f 188 39 38 42
f 191 190 192 193
f 191 193 194 35
f 191 35 34 39
f 194 193 195 196
f 194 196 12 197
f 194 197 36 35
f 197 12 11 198
f 197 198 32 36
f 198 199 33 32
f 198 11 200 199
f 200 201 202 199
f 200 11 9 8
f 200 8 203 201
f 203 204 205 201
f 203 8 1 7
f 203 7 206 204
f 206 207 208 204
f 206 7 6 209
f 206 209 210 207
f 210 211 212 207
f 210 209 213 214
f 210 214 215 211
f 215 216 217 211
f 215 214 218 219
f 215 219 220 216
f 220 221 222 216
f 220 219 223 224
f 220 224 225 221
f 225 226 227 221
f 225 224 228 229
f 225 229 230 226
f 230 231 232 226
f 230 229 233 234
f 230 234 235 231
f 235 236 237 231
f 235 234 238 239
f 235 239 240 236
f 240 241 242 236
f 240 239 243 244
f 240 244 245 241
f 245 246 247 241
f 245 244 248 249
f 245 249 250 246
f 250 251 252 246
f 250 249 253 254
f 250 254 255 251
f 255 256 257 251
f 255 254 258 259
f 255 259 260 256
f 260 261 262 256
f 260 259 263 264
f 260 264 265 261
f 265 266 267 261
f 265 264 268 269
f 265 269 270 266
f 270 271 272 266
f 270 269 273 274
f 270 274 132 271
f 274 273 275 276
f 274 276 133 132
f 276 275 156 277
f 276 277 134 133
f 277 156 154 153
f 277 153 136 134
f 275 273 278 159
f 275 159 157 156
f 278 273 269 268
f 278 268 279 162
f 278 162 160 159
f 279 268 264 263
f 279 263 280 165
f 279 165 163 162
f 280 263 259 258
f 280 258 281 168
f 280 168 166 165
f 281 258 254 253
f 281 253 282 171
f 281 171 169 168
f 282 253 249 248
f 282 248 283 174
f 282 174 172 171
f 283 248 244 243
f 283 243 284 177
f 283 177 175 174
f 284 243 239 238
f 284 238 285 180
f 284 180 178 177
f 285 238 234 233
f 285 233 286 183
f 285 183 181 180
f 286 233 229 228
f 286 228 287 186
f 286 186 184 183
f 287 228 224 223
f 287 223 288 189
f 287 189 187 186
f 288 223 219 218
f 288 218 289 192
f 288 192 190 189
f 289 218 214 213
f 289 213 290 195
f 289 195 193 192
f 290 213 209 6
f 290 6 5 291
f 290 291 196 195
f 291 5 9 10
f 291 10 12 196
f 272 123 121 120
f 272 120 267 266
f 272 271 128 123
f 271 132 129 128
f 267 120 118 117
f 267 117 262 261
f 262 117 113 112
f 262 112 257 256
f 257 112 108 107
f 257 107 252 251
f 252 107 103 102
f 252 102 247 246
f 247 102 98 97
f 247 97 242 241
f 242 97 93 92
f 242 92 237 236
f 237 92 88 87
f 237 87 232 231
f 232 87 83 82
f 232 82 227 226
f 227 82 78 77
f 227 77 222 221
f 222 77 73 72
f 222 72 217 216
f 217 72 68 67
f 217 67 212 211
f 212 67 63 62
f 212 62 208 207
f 208 62 58 57
f 208 57 205 204
f 205 57 53 52
f 205 52 202 201
f 202 52 48 47
f 202 47 33 199
f 153 151 138 136
f 149 141 139 138
f 116 115 28 27
f 47 43 30 33
f 292 310 311 312
f 292 313 314 310
f 292 312 315 316
f 292 316 317 318
f 293 319 320 321
f 293 321 322 323
f 293 323 324 325
f 293 326 327 319
f 293 325 328 326
f 294 329 330 331
f 294 332 333 329
f 294 331 334 332
f 295 335 336 337
f 295 337 338 339
f 295 339 340 335
f 296 341 342 343
f 296 344 345 341
f 296 343 346 344
f 297 347 348 349
f 297 349 311 350
f 297 350 351 347
f 298 352 353 302
f 298 354 355 352
f 298 356 357 354
f 298 358 359 356
f 298 302 360 358
f 299 361 362 363
f 299 363 364 365
f 299 365 366 361
f 300 367 368 369
f 300 370 371 367
f 300 369 372 370
f 301 373 374 375
f 301 376 377 373
f 301 375 378 376
f 302 379 380 360
f 302 381 382 379
f 302 353 383 381
f 303 384 385 386
f 303 387 388 384
f 303 386 389 387
f 304 318 390 391
f 304 391 392 393
f 304 313 292 318
f 304 394 395 313
f 304 393 396 394
f 305 397 398 399
f 305 399 400 401
f 305 401 402 397
f 306 403 404 405
f 306 405 406 407
f 306 407 408 403
f 307 409 410 411
f 307 412 413 409
f 307 411 414 412
f 308 415 416 417
f 308 417 418 419
f 308 419 420 415
f 309 380 421 422
f 309 422 423 424
f 309 424 360 380
f 424 425 358 360
f 424 423 366 425
f 425 426 359 358
f 425 366 365 426
f 426 392 391 359
f 426 365 364 392
f 423 422 427 428
f 423 428 361 366
f 428 427 429 430
f 428 430 362 361
f 430 429 333 332
f 430 332 334 362
f 429 427 431 432
f 429 432 433 333
f 433 432 434 435
f 433 435 436 437
f 433 437 329 333
f 437 436 438 439
f 437 439 330 329
f 439 438 440 441
f 439 441 442 330
f 442 443 444 445
f 442 445 331 330
f 442 441 446 443
f 446 447 448 443
f 446 441 440 449
f 446 449 450 447
f 450 451 452 447
f 450 449 453 418
f 450 418 417 451
f 453 454 455 456
f 453 456 419 418
f 453 449 440 454
f 456 455 457 458
f 456 458 420 419
f 458 457 411 410
f 458 410 459 420
f 459 460 461 462
f 459 462 415 420
f 459 410 409 460
f 462 461 463 464
f 462 464 416 415
f 464 463 465 466
f 464 466 467 416
f 467 466 468 469
f 467 469 452 451
f 467 451 417 416
f 469 468 470 471
f 469 471 472 452
f 472 471 395 394
f 472 394 396 448
f 472 448 447 452
f 471 470 473 395
f 473 372 369 314
f 473 314 313 395
f 473 470 474 372
f 474 475 370 372
f 474 470 468 476
f 474 476 477 475
f 477 478 479 475
f 477 476 465 480
f 477 480 481 478
f 481 482 483 478
f 481 480 484 485
f 481 485 486 482
f 486 487 488 482
f 486 485 489 490
f 486 490 491 487
f 491 492 493 487
f 491 490 494 495
f 491 495 496 492
f 496 497 498 492
f 496 495 499 500
f 496 500 501 497
f 501 502 503 497
f 501 500 504 505
f 501 505 506 502
f 506 507 508 502
f 506 505 509 510
f 506 510 511 507
f 511 385 384 507
f 511 510 512 513
f 511 513 514 385
f 514 515 386 385
f 514 513 516 517
f 514 517 518 515
f 518 519 520 515
f 518 517 383 521
f 518 521 522 519
f 522 521 523 524
f 522 524 525 526
f 522 526 527 519
f 527 526 528 529
f 527 529 344 346
f 527 346 520 519
f 529 528 530 531
f 529 531 345 344
f 531 530 532 533
f 531 533 534 345
f 534 533 535 536
f 534 536 537 538
f 534 538 341 345
f 538 537 539 540
f 538 540 342 341
f 540 539 508 388
f 540 388 387 342
f 539 537 541 503
f 539 503 502 508
f 541 537 536 542
f 541 542 543 498
f 541 498 497 503
f 543 542 544 545
f 543 545 546 493
f 543 493 492 498
f 546 545 547 548
f 546 548 549 488
f 546 488 487 493
f 549 548 550 551
f 549 551 552 483
f 549 483 482 488
f 552 551 553 554
f 552 554 371 479
f 552 479 478 483
f 554 553 347 351
f 554 351 367 371
f 553 555 348 347
f 553 551 550 555
f 555 320 319 348
f 555 550 556 320
f 556 557 321 320
f 556 550 548 547
f 556 547 558 557
f 558 559 560 557
f 558 547 545 544
f 558 544 535 559
f 560 561 562 322
f 560 322 321 557
f 560 559 532 561
f 562 563 564 565
f 562 565 323 322
f 562 561 566 563
f 566 567 568 563
f 566 561 532 530
f 566 530 528 567
f 568 569 570 571
f 568 571 564 563
f 568 567 525 569
f 571 570 572 573
f 571 573 574 564
f 574 573 575 576
f 574 576 577 578
f 574 578 565 564
f 578 577 579 324
f 578 324 323 565
f 579 577 580 581
f 579 581 582 583
f 579 583 325 324
f 583 582 584 585
f 583 585 328 325
f 585 584 586 587
f 585 587 588 328
f 588 587 589 590
f 588 590 316 315
f 588 315 326 328
f 590 589 591 592
f 590 592 317 316
f 592 591 593 594
f 592 594 595 317
f 595 594 596 357
f 595 357 356 390
f 595 390 318 317
f 596 594 593 597
f 596 597 598 599
f 596 599 354 357
f 599 598 600 601
f 599 601 355 354
f 601 600 602 603
f 601 603 604 355
f 604 603 605 606
f 604 606 607 608
f 604 608 352 355
f 608 607 524 523
f 608 523 353 352
f 607 606 570 569
f 607 569 525 524
f 606 605 572 570
f 605 603 602 609
f 605 609 610 572
f 610 609 611 612
f 610 612 613 575
f 610 575 573 572
f 613 612 614 615
f 613 615 616 617
f 613 617 576 575
f 617 616 618 580
f 617 580 577 576
f 618 616 406 619
f 618 619 339 338
f 618 338 581 580
f 619 406 405 620
f 619 620 340 339
f 620 405 404 621
f 620 621 622 340
f 622 621 623 624
f 622 624 625 626
f 622 626 335 340
f 626 625 627 628
f 626 628 336 335
f 628 627 629 586
f 628 586 584 336
f 629 627 374 630
f 629 630 591 589
f 629 589 587 586
f 630 374 373 631
f 630 631 593 591
f 631 373 377 632
f 631 632 597 593
f 632 377 633 634
f 632 634 598 597
f 634 633 635 636
f 634 636 600 598
f 636 635 637 638
f 636 638 602 600
f 638 637 639 611
f 638 611 609 602
f 639 637 401 400
f 639 400 408 614
f 639 614 612 611
f 637 635 402 401
f 635 633 640 402
f 640 376 378 641
f 640 641 397 402
f 640 633 377 376
f 641 378 624 623
f 641 623 398 397
f 627 625 375 374
f 625 624 378 375
f 623 621 404 398
f 616 615 407 406
f 615 614 408 407
f 584 582 337 336
f 582 581 338 337
f 567 528 526 525
f 559 535 533 532
f 544 542 536 535
f 523 521 383 353
f 520 346 343 389
f 520 389 386 515
f 517 516 381 383
f 516 513 512 642
f 516 642 382 381
f 642 512 643 644
f 642 644 645 382
f 645 644 646 647
f 645 647 648 649
f 645 649 379 382
f 649 648 431 421
f 649 421 380 379
f 648 647 650 434
f 648 434 432 431
f 650 647 646 651
f 650 651 652 653
f 650 653 435 434
f 653 652 654 655
f 653 655 436 435
f 655 654 656 657
f 655 657 438 436
f 657 656 455 454
f 657 454 440 438
f 656 654 658 659
f 656 659 457 455
f 659 658 660 414
f 659 414 411 457
f 660 661 662 663
f 660 663 412 414
f 660 658 664 661
f 664 665 666 661
f 664 658 654 652
f 664 652 651 665
f 666 667 504 668
f 666 668 662 661
f 666 665 669 667
f 669 643 509 667
f 669 665 651 646
f 669 646 644 643
f 668 504 500 499
f 668 499 670 662
f 670 499 495 494
f 670 494 671 672
f 670 672 663 662
f 672 671 673 413
f 672 413 412 663
f 673 671 489 674
f 673 674 461 460
f 673 460 409 413
f 674 489 485 484
f 674 484 463 461
f 671 494 490 489
f 667 509 505 504
f 643 512 510 509
f 508 507 384 388
f 484 480 465 463
f 479 371 370 475
f 476 468 466 465
f 448 396 444 443
f 445 444 675 676
f 445 676 334 331
f 676 675 364 363
f 676 363 362 334
f 675 393 392 364
f 675 444 396 393
f 431 427 422 421
f 408 400 399 403
f 404 403 399 398
f 391 390 356 359
f 389 343 342 387
f 369 368 310 314
f 368 367 351 350
f 368 350 311 310
f 349 327 312 311
f 349 348 319 327
f 327 326 315 312

 