# File exported by ZBrush version 2025
# www.zbrush.com
g ZBrushPolyMesh3D
#Vertex Count 752
#Face Count 754
#Auto scale x=1.000000 y=1.000000 z=1.000000
#Auto offset x=0.000000 y=0.000000 z=0.000000
v -0.34663459 -1.2573024 0.55583721
v 0.32663032 -1.20699977 0.5427072
v 0.01022652 6.55131101 -0.05175244
v 0.29934725 -1.20935261 -0.45658665
v -0.21668134 -1.30961716 -0.82297706
v -0.42257854 -1.15330278 0.62891405
v -0.48253691 -1.24503672 0.31989616
v -0.36888775 -1.31287038 0.3743762
v -0.19104906 -1.25072777 0.61261832
v -0.19475123 -1.11245501 0.74531328
v -0.1551086 -1.31566608 0.36403405
v 0.41170343 -1.096542 0.62622696
v 0.1778839 -1.09998905 0.74529254
v 0.16832031 -1.22864389 0.60804647
v 0.13800936 -1.27435791 0.35173821
v 0.35035583 -1.2263199 0.35643157
v 0.47365635 -1.09807026 0.33150276
v 0.10090185 6.44708871 0.02657171
v 0.08791704 6.51121902 -0.0278068
v 0.00429854 6.54671478 -0.0139291
v 0.01153973 6.50260114 0.01250141
v -0.14045527 6.35771751 0.00289941
v -0.04762859 6.48719501 0.00620773
v -0.03929404 6.53913307 -0.01869731
v -0.11558738 6.45988035 -0.07083768
v -0.02548996 6.55210351 -0.05517821
v -0.03429368 6.55213499 -0.03266216
v -0.00016271 6.55743932 -0.02904155
v 0.07787416 6.49259328 -0.06850114
v 0.05473602 6.44207572 -0.12924307
v 0.00070102 6.40473032 -0.19104825
v 0.36524355 -1.08676981 -0.4941203
v 0.41028872 -1.09019672 -0.20149901
v 0.32196959 -1.23093748 -0.21157361
v 0.14176583 -1.28265488 -0.24709634
v 0.16679425 -1.24315834 -0.58738148
v 0.17083439 -1.11094939 -0.71385419
v -0.27790862 -1.21238005 -0.95859217
v -0.07596525 -1.17188203 -0.94040203
v -0.08642731 -1.29909479 -0.79304724
v -0.25887194 -1.31961834 -0.54927796
v -0.33472135 -1.20739269 -0.6327911
v -0.08571019 -1.32497453 -0.40248802
v -0.07726826 6.1978445 -0.37011629
v -0.0941229 6.39940309 -0.17780707
v -0.2473818 5.61154413 -0.49309888
v -0.29416582 5.6809163 -0.35410133
v -0.10842278 6.44004344 -0.11861114
v -0.1537072 5.61165714 -0.56656217
v -0.10324899 5.32148933 -0.40846905
v -0.23433074 5.30570364 -0.31794571
v -0.0110565 5.71681213 -0.4915733
v 0.04035443 5.29884052 -0.44469097
v 0.0815383 4.79736137 -0.42883166
v -0.0890038 4.79011821 -0.43480393
v 0.10659944 5.84752607 -0.32827073
v 0.14151853 5.2184987 -0.45001223
v 0.22559839 4.80077171 -0.32365557
v 0.24596419 4.18927574 -0.3349024
v 0.09321813 4.19058179 -0.44483861
v 0.21462473 5.22903394 -0.29962635
v 0.30293744 4.80080938 -0.16693542
v 0.32951167 4.18556594 -0.1716209
v 0.34666714 3.55395817 -0.17085076
v 0.25827994 3.5544312 -0.34773147
v 0.30964699 4.7942233 0.00144757
v 0.33458882 4.17791032 0.00499499
v 0.35233622 3.55164957 0.02220874
v 0.37895301 2.91964674 0.04388406
v 0.3653272 2.91765713 -0.16792167
v 0.26729193 4.16567277 0.1561339
v 0.28212547 3.54338407 0.19302615
v 0.32318738 2.88827109 0.25636598
v 0.37799179 2.15515565 0.28863915
v 0.42879289 2.27324748 0.06946456
v 0.09200884 3.52827525 0.24256041
v 0.11008011 2.8962605 0.31324386
v 0.11473895 2.28137898 0.32515397
v 0.21591651 1.47334349 0.49076917
v 0.55719876 1.19286298 0.52071243
v -0.11748217 2.90459013 0.30583888
v -0.12319328 2.28574514 0.3306559
v -0.13072645 1.65330028 0.38430294
v -0.15170812 0.95962065 0.42162337
v 0.13797764 0.98990452 0.46118938
v -0.34209847 2.2878673 0.27047568
v -0.36066368 1.64542794 0.3006252
v -0.40853932 0.92660135 0.31915247
v -0.42106288 0.22696197 0.3068104
v -0.16768428 0.26394531 0.39842724
v -0.43907901 1.61976826 0.0835936
v -0.46983695 0.8839026 0.08041863
v -0.44665595 0.21032007 0.06489052
v -0.48501971 -0.57811445 0.12571322
v -0.47761911 -0.45711302 0.42814087
v -0.45418667 0.81634342 -0.15835069
v -0.41867408 0.23501697 -0.22077563
v -0.41825982 -0.54402995 -0.41836544
v -0.35821262 -1.0197097 -0.64816182
v -0.50594258 -1.12141823 0.23019853
v -0.37861311 0.2909598 -0.46577042
v -0.38832628 -0.42725709 -0.68484646
v -0.29582583 -1.01780533 -1.00704371
v -0.13761696 -0.37617102 -0.67947036
v -0.07343975 -0.97452551 -0.97633969
v 0.15861144 -0.34358763 -0.56746614
v 0.17566868 -0.91047912 -0.73516285
v 0.41729256 -0.34776648 -0.46292856
v 0.38984373 -0.88170212 -0.49587053
v 0.4402875 -0.373833 -0.1728039
v 0.43691462 -0.87609255 -0.1759832
v 0.46615079 -0.3543882 0.21143627
v 0.49694544 -0.8850848 0.29138013
v 0.45369508 -0.30419006 0.5036745
v 0.44217333 -0.87356221 0.61236596
v 0.18856592 -0.31092912 0.54429358
v 0.1666525 -0.82075154 0.71441
v -0.20422947 -0.37819671 0.50725913
v -0.17724169 -0.8491525 0.71169984
v -0.45933267 -0.97412741 0.60394054
v 0.14682193 0.30486378 0.45218625
v 0.39742252 0.32367423 0.43441453
v 0.39366775 0.99759817 0.42075926
v 0.42980873 0.30211162 0.18416845
v 0.45134443 0.97965914 0.18068966
v 0.57695287 1.3690145 0.27094689
v 0.41815128 0.9561851 -0.07632864
v 0.42801967 1.60084354 -0.10586224
v 0.40792843 2.27630662 -0.15690265
v 0.32564371 1.59683442 -0.34261921
v 0.310469 2.26879024 -0.36137637
v 0.27702349 2.91217422 -0.35920593
v 0.11641357 2.26098561 -0.4769769
v 0.10502056 2.90772509 -0.47721469
v 0.09793543 3.55461001 -0.46106281
v -0.09955507 2.90768742 -0.48010921
v -0.09193456 3.55462312 -0.4644885
v -0.08700797 4.18959474 -0.45028927
v -0.25309798 3.55370068 -0.35357025
v -0.24171903 4.18432664 -0.34909263
v -0.23571732 4.77808141 -0.33895564
v -0.33113914 4.1747117 -0.1991083
v -0.32110336 4.76306581 -0.19667759
v -0.31366589 5.29234695 -0.1858263
v -0.33509972 4.74835157 -0.0391997
v -0.33073678 5.28703165 -0.03994023
v -0.29074609 5.8086276 -0.16027313
v -0.27842372 5.28945016 0.09341736
v -0.24694646 5.86498737 0.07848812
v -0.13039499 5.29881334 0.15700683
v -0.13681633 5.85785436 0.21831733
v 0.04232972 5.3193531 0.16806261
v 0.00009925 5.9275341 0.21587269
v 0.19555905 5.34389352 0.12160968
v 0.16030086 6.01111459 0.13050454
v 0.24821917 5.31477975 -0.05118512
v 0.24106016 5.98338031 0.00164265
v 0.19265933 5.93782758 -0.16226041
v 0.24292206 4.7789402 0.14255634
v 0.07326377 4.75485611 0.18026916
v 0.08607693 4.15110111 0.19397474
v -0.11342568 4.73940372 0.1660646
v -0.10759589 4.14330768 0.18257162
v -0.11225509 3.51856303 0.23642304
v -0.28554534 4.14697074 0.12290413
v -0.30928722 3.47381162 0.17560705
v -0.31449437 2.90990114 0.23732888
v -0.38951405 3.40592908 0.00531479
v -0.37867176 2.91549515 0.04007316
v -0.42781847 2.27887511 0.05924514
v -0.37008667 2.89412331 -0.18141879
v -0.44968298 2.08855557 -0.2306379
v -0.42631739 1.57497024 -0.14217568
v -0.35918742 2.02803492 -0.45390713
v -0.34751018 1.534258 -0.35134729
v -0.39279121 0.77556115 -0.38135829
v -0.14447376 1.51421988 -0.4663563
v -0.18573631 0.72523164 -0.48144155
v -0.13515853 0.31451386 -0.5197739
v 0.06801335 0.72741216 -0.48813629
v 0.13344599 0.32915458 -0.50148099
v 0.33052104 0.9075576 -0.33132922
v 0.37168076 0.33623737 -0.40593633
v 0.40552693 0.30526092 -0.12809965
v 0.10758607 1.54357552 -0.46390906
v -0.11435599 2.23741078 -0.48874965
v -0.28183418 2.86978292 -0.37935906
v -0.36150211 3.48796939 -0.18449191
v -0.34237906 4.16188812 -0.03153272
v -0.2798258 4.73748731 0.10422595
v 0.22826327 7.70897674 -0.11207759
v -0.15321038 7.16805791 0.13794544
v 0.67267841 7.34015274 0.28546488
v 0.52119946 7.48348951 -0.25856703
v -1.06348049 2.93054056 0.78115552
v 0.28526723 4.42194032 1.03091347
v -0.84952616 2.61916685 2.01964736
v -0.38656792 2.88177943 -1.63168346
v -0.61546784 2.64985275 -1.66413974
v -0.90756869 2.88248395 -1.22046327
v -1.07398259 1.97912097 1.89712941
v -0.79065626 2.87292718 -1.10487747
v -1.26313138 2.12107515 1.50007176
v -1.13702499 2.5371077 1.03498029
v -1.01918578 2.17087864 1.44011819
v -0.9911952 1.97918748 1.83474242
v -0.51578867 2.92626309 -1.40528368
v -1.14558601 2.71977496 0.66624563
v -1.13683044 2.71357035 0.68903541
v -1.20318198 2.50903177 0.28402078
v -1.16844224 2.5705161 0.35728824
v -1.29446232 1.80703544 0.6364417
v -0.57604253 2.68884277 1.83605337
v 1.32372605 3.39490246 1.32282698
v 0.15172335 3.09909868 -1.35155093
v 0.06251258 3.16955518 -1.42656314
v -1.19587636 2.5121088 0.27533751
v -1.43670964 1.53801024 0.53762793
v 0.3152039 3.29912471 1.23736751
v -0.10785448 3.18836808 -1.24880802
v 1.21022141 3.12542772 -0.9677068
v 0.93438899 2.77880024 -1.42330479
v 0.68650537 2.51821041 -1.71953666
v 0.49646163 2.71741604 -1.63961267
v -1.17052257 1.19132363 -1.13516604
v -1.09507656 2.73377537 0.33889544
v -1.24566197 2.44934892 0.20394837
v 1.66227853 3.09333014 0.08237384
v 1.57471537 3.09384083 -0.27737301
v 1.45859944 3.14526701 -0.55008024
v 1.38398587 3.16973638 -0.67216783
v 1.03837537 2.73535704 -1.34612023
v 0.81609034 2.42316103 -1.6807475
v 0.69757992 2.43668413 -1.73455071
v -1.37397444 1.85984969 0.14990401
v 1.62128222 2.80864644 0.14923599
v 1.63186478 2.84018826 -0.17612412
v 1.34951865 3.07797837 -0.70797383
v 1.3953886 3.13792896 -0.63923156
v 1.2114613 2.80675554 -1.06835103
v 0.30375152 2.66664981 -1.31027972
v -1.56839799 0.71276336 0.51839697
v -1.36231493 1.01581382 0.74579232
v 1.0686295 3.01915454 1.07580792
v 1.33134448 3.25714016 -0.48642447
v 1.35608768 3.01933288 -0.68361544
v 1.20139098 2.70730352 -1.10035991
v 1.21457839 3.47671937 -0.4562397
v 1.24970257 3.21901845 -0.57979434
v 1.26188051 3.05728483 -0.70867282
v 1.33947873 2.46946716 -0.92404747
v -1.18533587 1.97240161 -0.36229324
v -1.38016581 1.40561819 -0.04206854
v -1.61236548 0.35359102 0.44898116
v 1.33074224 0.86017531 -1.33950388
v 1.60611879 0.6871643 -0.5227074
v 1.55795049 0.69746035 -1.08921003
v -1.42757701 0.20079368 1.06907868
v 0.61790514 0.63099259 -1.26764845
v -1.58065772 0.13523849 0.30165463
v 1.31077933 0.49088552 -0.9748578
v 1.02415478 0.87414455 -0.97598481
v 0.95124763 0.87539035 -0.9842714
v -1.51107788 0.0042262 0.15106554
v 0.98582035 0.69324368 -0.7890855
v 1.06461739 0.69393676 -0.78560268
v -1.29701542 -0.03433441 -0.00511547
v -0.84134471 -0.09147699 1.24221968
v 0.46950906 0.72335028 1.23288869
v -0.42789545 1.13634645 -0.46644628
v -0.3312335 0.21235856 1.35807895
v 0.50954437 1.14072775 0.33204394
v -0.27305063 0.93192952 -0.44502052
v 0.3884288 0.91731131 -0.15150682
v 0.01541663 0.62776422 -0.5399236
v 0.41042625 1.2053672 0.27446568
v -0.09836369 0.90413218 -0.29391646
v 0.06119402 1.05987107 -0.05763315
v -0.15489101 0.92139607 -0.1700153
v -0.19014754 0.89092218 -0.16727866
v -0.20076534 0.92394751 -0.17728346
v -0.22947637 0.81756633 -0.09522225
v -0.34680205 0.67311078 0.04433601
v -0.18462488 0.81040787 0.20006638
v -0.51334536 0.45804601 0.53122967
v -1.11814642 2.61649322 0.64808946
v -1.26327395 2.27652359 0.27939558
v 0.74308848 2.68777537 -1.41006112
v -1.22477769 2.17978525 -0.03425549
v 0.97785806 2.61924243 0.51119113
v 1.37875485 3.12380218 0.06641046
v 1.34207129 2.66222858 -0.55822181
v 1.2772324 2.97777795 -0.64997136
v -0.92927718 2.83763051 -1.79905438
v -1.13287091 2.54453206 1.0438379
v -1.03637611 2.13305187 1.51512217
v -1.22764205 1.43208324 1.23242378
v -1.16283917 2.63003039 0.35361689
v 0.37743431 2.93983888 -1.51680219
v -1.30188059 2.09834861 0.36907488
v 0.86552959 2.56466651 -1.5898261
v 0.56855607 2.64848756 -1.71551024
v -1.15528428 2.57509923 0.06901563
v 1.27988493 3.39689326 -0.40434879
v 1.2490009 2.93892145 -0.79026097
v -1.57002151 0.04033164 0.01117322
v -1.44899129 -0.03804087 0.01604498
v -1.12242639 0.025854 -0.01117357
v 0.67106074 0.63969361 0.87934327
v -0.3191818 0.92136859 -0.35109463
v -0.14888772 0.85000056 -0.428193
v -0.14695054 0.94785857 -0.22555246
v 0.04210865 1.07374239 0.08390957
v 1.33021163 2.73976516 -0.68041408
v -1.176494 2.63194203 0.3591713
v 1.23205268 2.96098709 -0.87977182
v 0.20103052 7.72040033 -0.03219508
v 0.28013825 7.73862695 -0.00379345
v 0.29122319 7.71799469 -0.11374503
v 0.23862412 7.57836628 -0.25230699
v 0.15803477 7.59477329 -0.19248527
v 0.10165017 7.61749076 -0.09916595
v -0.08864616 7.31434202 0.0064093
v -0.33915686 6.64964628 -0.05413901
v -0.36124375 6.61333465 0.10975364
v -0.34539967 6.52085733 0.29018032
v -0.03766777 7.4245491 0.19339965
v 0.06045593 7.61272382 0.0165596
v 0.53060913 7.48781347 0.31115496
v 0.59354388 6.82557773 0.62218451
v 0.79869198 6.85671186 0.40425851
v 0.89668566 6.81126737 0.16487553
v 0.7025671 7.38782835 0.10950432
v 0.54858583 7.58623552 0.10646174
v 0.54136592 7.56719493 -0.14726159
v 0.69257915 7.25460338 -0.24952685
v 0.56793117 7.15928936 -0.36587438
v 0.39194268 7.10693168 -0.39929598
v 0.4316436 7.55605125 -0.2614704
v 0.44464016 7.66003084 -0.12608107
v -1.11667776 2.6733334 1.1031562
v -1.0605297 3.06623435 0.59495449
v -1.06774449 3.0123465 0.50068694
v -1.06886625 2.74868893 0.82570385
v -1.21010518 2.27874541 1.35119104
v -1.02431774 2.93367791 0.45379716
v -0.13820575 3.89892196 1.38404583
v 0.04377761 3.75966811 1.37928605
v 0.80546933 3.29906559 1.65952444
v -0.2866182 4.61952638 1.09954917
v -0.41934588 3.93322134 1.37473082
v 0.93920111 4.66258239 0.76806491
v -0.65835493 2.29483652 1.84137105
v -0.9815852 2.51784515 -1.64111852
v -0.78955 2.64840245 -1.60500502
v -1.00229024 3.11283278 -0.54491549
v -1.15032649 3.21172046 -0.62369853
v -1.17348742 2.84045314 -1.2682234
v -0.97745579 2.79411864 -0.61872547
v -1.08365571 2.18569684 1.41878163
v -0.88448691 2.13049984 1.59860074
v -0.49474677 2.7549293 -1.22430133
v -0.82177221 2.4530003 -1.05528569
v -1.1473509 1.93213534 -0.89805334
v -0.98851627 2.53427004 1.84031415
v -1.01959192 2.54337883 1.7317177
v -1.08373498 2.68596839 0.80072677
v -1.21550524 2.09688401 1.53124594
v -1.13416218 2.72226214 0.51915031
v -1.11047172 2.62325716 0.79819339
v -1.07556545 2.4273045 1.10398423
v -1.07428932 2.44223237 0.83926528
v -1.06485366 2.12469744 1.07465088
v -1.04755294 1.74738609 1.33166325
v -0.70666545 2.16346073 1.69646477
v -0.55150085 2.72593259 -1.63936495
v -0.33274683 2.93613672 -1.55042624
v -0.13692143 3.01223683 -1.20597839
v -1.13755977 2.68532538 0.40903559
v -1.13539195 2.69960999 0.45625835
v -1.14284265 2.72122621 0.50307488
v -1.19567561 2.50686359 0.30824589
v -1.24767625 2.26776933 0.41347613
v -1.56022524 1.0554707 0.49450445
v -1.28193342 1.75615513 0.55989295
v -1.22598981 1.82694053 0.95405101
v -1.20762205 2.1985569 0.62222087
v -0.39332154 2.55733585 1.7981826
v -0.25368672 3.08794808 1.61591553
v 0.99088835 2.88456296 1.80630827
v 1.30799543 2.92061805 1.52483439
v 1.41100812 4.13192033 0.44798725
v 1.32844483 4.7716093 0.48093578
v 1.27778005 3.29364538 0.84795326
v 1.37782967 3.52975225 0.63799113
v 1.52271866 3.6696043 0.3410632
v -0.27345177 3.07138657 -1.5653342
v 0.13955396 3.24398231 -1.35962104
v -1.1751703 2.58979821 0.31397616
v -1.21467673 2.4414258 0.23312845
v -1.51836097 1.32046389 0.27785968
v -1.66202676 0.71772968 0.29644289
v 0.31017711 3.38931441 1.36958599
v -0.0222446 3.16911459 1.51165986
v 0.21764594 3.12342286 1.37006425
v 0.54643362 2.87766003 1.15607476
v 0.57995384 3.1020925 1.11283016
v 0.85295856 2.86062169 1.54910349
v 1.51163435 3.44092869 -0.41969528
v 1.18970203 3.58068037 -0.81617164
v 1.45414412 3.75794744 -0.41711849
v 0.82361322 3.26846408 -1.20515978
v 0.991032 2.48756527 -1.50340366
v 0.56180781 2.61798501 -1.65650796
v 0.46704864 2.81232953 -1.44712615
v 0.08238679 2.63786387 -1.25366842
v -0.19533681 2.61031937 -1.20300269
v -0.89010405 1.70175516 -1.24661254
v -0.54429572 1.88651275 -1.07391345
v -0.62247538 1.73846805 -0.89816516
v -0.60231345 1.70555567 -0.64534473
v -1.14720392 1.21373653 -0.81618732
v -1.15319442 2.65886592 0.40301075
v -1.17896282 2.50792169 0.19377854
v -1.07747376 2.66457724 0.0000253
v -1.0978657 2.77441048 -0.07621065
v -1.28858709 2.26911807 0.1462419
v 1.64208436 2.99437212 0.19149948
v 1.66393542 2.87595772 0.01696785
v 1.65817284 3.06147813 -0.08862282
v 1.61788141 3.33182907 0.19275695
v 1.53208708 3.24595499 0.39833319
v 1.63007521 3.37829113 -0.11138783
v 1.4668163 3.13653516 -0.28114047
v 1.33068072 3.05719924 -0.76555043
v 0.90127784 2.42656898 -1.58031308
v 0.7333979 2.46474623 -1.65861964
v 1.08042609 2.54688048 -1.34991622
v -1.28464412 1.78745687 -0.05450787
v 1.55313706 2.90456771 0.29791331
v 1.45914828 2.93248152 0.26111823
v 1.55862247 2.8729043 0.06197459
v 1.48785805 3.00338912 -0.03163882
v 1.33238101 3.1067965 -0.67194169
v 1.36608612 3.28739118 -0.27108043
v 1.23353195 2.83940959 -1.00425791
v 0.46161398 2.49210715 -1.35054338
v 0.1711893 2.25918054 -1.27913522
v -1.40852189 0.52587425 0.64583373
v -1.27065157 0.97261863 1.30551028
v -1.41226398 0.24561056 1.32031834
v -1.28114938 0.15967172 1.61743021
v 0.86179804 2.98887014 0.68338018
v 1.10725212 3.25008869 0.66695797
v 0.9713754 3.41141486 0.43159082
v 1.08909189 3.38854932 0.40302863
v 0.98581659 3.17621755 0.37247744
v 1.34172248 2.84339213 -0.80244517
v 0.97536706 2.6109116 -1.37295436
v 1.20749723 2.40970683 -1.17908108
v 1.03789389 2.38439154 -1.32555377
v 1.28531467 3.43573212 -0.25610777
v 1.22151362 3.48601412 -0.27010652
v 1.2459644 3.30420804 -0.32947409
v 1.28574121 3.0236988 -0.40809908
v 1.39926111 2.29784655 -0.75366234
v -1.10196554 1.53000783 -0.50898534
v -1.07336449 1.73325586 -0.29832002
v -1.24301362 1.20772981 -0.29131463
v -1.62870144 0.51693493 0.01671163
v -1.54626107 0.33636957 -0.18191529
v -1.37528753 0.2392089 0.62216162
v 1.263718 1.15744793 -1.37141716
v 1.39977443 1.20670044 -1.29575324
v 1.46748781 0.88267046 -1.25820338
v 1.39102685 0.5899707 -1.15531337
v 1.28863 0.60839748 -1.09645628
v 1.21370136 0.83504331 -1.25404048
v 1.1392945 1.11370635 -1.33028578
v -0.9022063 0.61464649 1.87021327
v -1.11179196 0.58102929 1.73042452
v -1.00970363 0.13203907 1.7426449
v -0.72953033 0.37082806 1.88449502
v 1.61766147 0.80188274 -0.35011309
v 1.50723838 0.64687752 -0.16653329
v 1.53536701 0.56615328 -0.50918889
v 1.6101787 0.76358455 -0.72172451
v 1.62545847 1.01736497 -0.6463533
v 1.56504273 0.60190904 -0.76305902
v 1.54206216 0.89915692 -1.14040231
v 1.58193934 0.87383419 -0.96250867
v 1.56697046 0.64864045 -0.9732117
v 1.504606 0.61262011 -1.14222407
v 1.52290391 0.49498537 -0.98967224
v -1.3750801 -0.05274908 1.11341428
v -1.23805975 -0.07013453 1.44301128
v 0.84762477 0.96375638 -1.10790264
v 0.64985263 0.50910836 -1.15699803
v 0.0207078 -0.08614456 -1.52710068
v 0.23401366 0.40823453 -1.54572999
v 0.46570706 1.07406449 -1.36791205
v -1.4116379 0.03552024 0.3123824
v -1.28102576 0.09934032 0.59871131
v 1.40349137 0.45792177 -0.98722213
v 1.35138261 0.42030704 -0.80670851
v 1.27065444 0.5112338 -0.85368746
v 1.20942235 0.65739435 -0.982261
v 1.1251167 0.84634268 -1.13698566
v 0.93674349 1.05569374 -1.10289382
v 0.65028202 0.51088726 -0.88694977
v 0.70419549 0.65350008 -0.6048541
v 1.21248614 0.56963354 -0.63464152
v -1.20465374 0.21672874 -0.24869269
v -0.97001701 0.29719945 -0.12683036
v -1.4093759 0.18190845 -0.25366568
v -1.00962042 0.04277483 0.23047639
v -1.25225806 -0.01015698 0.25025105
v -0.94745355 -0.10150639 1.33183634
v -1.08209848 -0.1242054 1.03258979
v -0.88901108 -0.0566065 1.0079844
v -0.64834648 0.1064447 0.99359762
v -0.68668866 -0.04666323 1.28183162
v -0.79428857 -0.05367487 1.41244101
v 0.1314228 1.04635536 1.54722559
v 0.06563409 0.8571701 1.17387247
v 0.35702708 1.11692273 0.71287792
v 0.92396742 0.57376384 0.87958699
v 0.91078579 0.35574537 1.39025569
v -0.65938901 1.69594013 -0.48812115
v -0.37259972 1.01654887 -0.60046958
v -0.41367363 0.85737675 -0.32780438
v -0.56406569 1.0726192 -0.4246093
v -0.78924292 1.53895616 -0.43483632
v -0.36850398 0.18367725 1.5256071
v -0.60771703 0.01156168 1.45895171
v -0.49283167 0.04870248 1.30180621
v -0.22761851 0.45470404 1.35921168
v -0.18037346 0.57096827 1.6671822
v -0.4240255 0.32101893 1.07833659
v 0.89543193 0.74442261 0.69196552
v 0.94255644 1.00025558 0.06637898
v 0.08086414 1.11151826 0.43194952
v 0.95053798 0.69195276 -0.39525574
v -0.37329763 0.80582153 -1.00357484
v -0.04329623 -0.00069093 -1.17579865
v -0.28923156 0.80663549 -0.17674751
v -0.45383235 0.66098153 -0.09653046
v -0.20585213 0.75705599 0.78170847
v -0.89554745 0.1544187 0.5443418
v -0.68032151 0.47278794 0.14449699
v 0.84814232 2.29044938 -1.39496076
v 0.62902867 2.12843084 -1.3550291
v 1.04521799 2.79856157 0.32080799
v 0.85989242 2.37867856 0.7504217
v 1.26805841 1.10327732 0.77158254
v 1.07360947 2.446527 0.21076327
v 1.28459096 3.24335169 0.13151729
v 1.3383131 3.26923799 -0.0731626
v 1.42338943 3.11985755 -0.07099603
v 1.41231417 3.0311203 0.15654724
v 1.26057267 3.17452335 0.32326337
v 1.29900372 2.63410425 -0.29108181
v 1.38991642 2.1737833 -0.49537017
v -0.83871585 3.56777668 -1.45972657
v -0.48876905 3.63478517 -1.49231863
v -0.47651228 3.15205049 -1.65654969
v -1.18520462 3.0948863 -1.36355805
v -1.02780425 3.62791681 -1.17927086
v -1.07467496 1.08923792 1.67040979
v -0.91681999 1.55811893 1.58923018
v 0.09333112 3.41147732 -1.35271477
v 0.47716003 2.85059857 -1.51860988
v 1.04099619 1.08112323 -1.21564185
v 1.23923885 3.03397107 -0.15385423
v 1.21073889 3.27489233 -0.09445818
v 1.10471189 3.24650979 0.13255737
v 1.14211416 2.97117996 0.07074633
v 1.21484732 2.58202576 -0.06240775
v 1.30012524 2.0550754 -0.21619112
v 1.23146534 1.71913731 0.15444625
v 1.37245571 1.1021794 0.02009253
v 1.50273346 1.30417013 -0.2417342
v 1.21365714 1.0380547 0.54111754
v 1.17046177 1.01206839 0.15662962
v 1.33092236 0.58281612 -0.09475246
v 1.15092289 0.60330659 -0.17740598
v 1.2632308 0.45216566 -0.53915059
v 1.41465246 0.47000598 -0.49519938
v 1.48918998 0.45940238 -0.77991664
v 1.51961052 1.56780767 -0.61168211
v 1.56781387 1.18282067 -0.95022159
v 1.47842943 1.71904885 -0.91458749
v 1.49066734 1.23146152 -1.15896797
v 1.41059827 1.73906064 -1.12731659
v 1.29007184 1.7449944 -1.28988397
v 1.1561135 1.69727802 -1.39570248
v 0.97415536 1.63438868 -1.39602744
v 0.82370418 1.54585015 -1.29212486
v 0.66696333 1.46541893 -1.22809374
v 0.36924207 1.92756104 -1.28697276
v 0.09599985 1.68233764 -1.30353522
v -0.15085741 2.13408637 -1.24973261
v -0.10956116 1.37323582 -1.30401694
v -0.37186038 2.05095362 -1.16861784
v -0.52410835 2.34700775 -1.19233405
v -0.29266542 0.97444772 -1.25947594
v 1.19462788 3.45557212 -0.06342113
v 1.10022521 3.45269584 0.14127619
v 1.24857521 3.42187023 -0.06085068
v 1.17042517 3.41755724 0.15052294
v -0.00327739 3.69679427 -1.34024643
v 0.40028107 3.4273777 -1.32827436
v 0.33138781 4.09069871 -1.12075305
v 0.80507379 4.12288761 -0.8651573
v -0.08645393 4.14007282 -1.25693726
v -0.05808883 4.762465 -1.06865918
v 0.28999346 4.68876838 -1.00084471
v -0.42599409 4.24730396 -1.24972021
v -0.36462229 4.81677866 -1.04930794
v -0.30645826 5.33330202 -0.904962
v -0.03392634 5.30660629 -0.92324322
v -0.68829721 4.28348827 -1.11867272
v -0.608033 4.82930135 -0.92010045
v -0.52526152 5.33150196 -0.79107236
v -0.47502785 5.41115665 -1.07456779
v -0.28125584 5.47734308 -1.12042594
v -0.80418115 4.80098867 -0.67278051
v -0.70482921 5.30720472 -0.56617665
v -0.60246235 5.47863245 -0.83440446
v -0.28909853 6.57999801 -0.23054477
v -0.19365131 6.50434923 -0.42365834
v -0.83425968 5.25504303 -0.20512814
v -0.64389818 5.74200439 -0.34384322
v -0.87555539 5.26219606 0.17835262
v -0.65469968 5.873847 0.23295921
v -0.84555977 5.31435918 0.47505077
v -0.66998606 5.64051675 0.68476182
v -0.70212519 5.34291362 0.68916052
v -0.585747 5.53145885 0.9477474
v -0.27755409 6.42710065 0.37700301
v 0.03140072 7.46699905 0.30479171
v -0.41033801 5.53732872 1.06135296
v -0.16445465 6.36210203 0.43316897
v 0.12430645 7.49242019 0.37467017
v 0.24222405 7.72371196 0.101232
v 0.15388579 7.69902181 0.06515479
v 0.02929107 6.38119888 0.50366812
v 0.25130745 7.50962019 0.40153291
v 0.32900479 7.7150197 0.11609651
v 0.35373461 7.72720956 0.00009053
v 0.40210035 7.51465559 0.37135714
v 0.43424439 7.67374897 0.11438398
v 0.4460839 7.6830039 -0.00687868
v 0.36139708 7.70364189 -0.12184568
v 0.56028121 7.5822668 -0.03135046
v 0.73097741 7.3258171 -0.07410293
v 0.89737206 6.74030399 -0.08254916
v 0.78313845 6.68687152 -0.31870335
v 1.29594874 5.5165224 0.07529532
v 0.9168837 5.34179306 -0.63890266
v 0.51409661 5.63249683 -0.86292523
v 0.57813984 6.60821914 -0.47680783
v 0.25140225 5.76647949 -0.85720789
v 0.33068344 6.53797531 -0.53570669
v -0.03130106 5.62863016 -1.01232743
v 0.11732456 6.50416374 -0.54874646
v 0.23325862 7.10903167 -0.37982529
v 0.33432182 7.56959676 -0.2737286
v -0.05642033 6.48828125 -0.53005373
v 0.09438221 7.1211214 -0.31857812
v -0.01109083 7.15935993 -0.22567728
v -0.0708602 7.23630762 -0.11192872
v 0.23613163 5.06409359 -1.09534597
v 0.4749315 4.61069011 -1.46031653
v 0.76976913 4.62805652 -0.83176749
v 0.81895339 4.73449754 -1.12626493
v 1.16644203 4.71657276 -0.50548631
v 1.19778835 4.19590234 -0.58834618
v 1.41200137 4.80886936 -0.14886844
v 1.46759355 4.17686224 -0.29192939
v 1.47348702 4.81115627 0.14838051
v 1.5316888 4.16045713 0.05987947
v 1.58637368 3.70263934 -0.05453157
v 1.29815352 5.27856874 0.21886207
v 1.07012629 5.32100963 0.43341064
v 1.22907853 5.19887208 -0.1993443
v 1.3365066 5.49051857 0.36832973
v 1.1127423 5.6265273 0.55863845
v 0.68469971 5.88157415 0.66655778
v 0.71801698 5.29770326 0.61744618
v 0.27188798 5.88066339 0.75142711
v 0.2538568 5.20799541 0.80191147
v -0.12775142 5.66262769 1.0145936
v -0.20670013 5.27444744 0.86091333
v -0.5086627 5.33227396 0.80836331
v -0.64154148 4.68402814 1.08490872
v -0.85937005 4.66746807 0.91895389
v -0.80882018 3.9038043 1.08455443
v -0.63421845 3.93704915 1.27165269
v -1.00924229 2.86942434 1.34590899
v -0.98524123 3.77380847 0.76411312
v -1.01107049 3.23542833 0.72171288
v -1.31964397 3.03200912 0.16209939
v -1.35608339 2.37996363 0.06631568
v -1.34313154 2.34053754 0.03562909
v -1.12538945 3.55959892 -0.61098706
v -1.18079876 3.36771631 -0.63733321
v -1.2791531 2.50421309 0.01027502
v -1.03412616 4.12162971 -0.45339545
v -0.87372583 4.26640129 -0.86245387
v -0.97874361 4.70807266 -0.25143063
v -1.09050273 4.62948608 0.2634271
v -1.04223072 4.65006113 0.66185462
v 0.32091772 6.60160732 0.61718982
v -0.6459676 1.58453476 1.78766238
v -0.46001204 2.20005822 1.80624043
v -0.82378894 1.03753912 1.87984013
v -0.60411846 0.99549841 1.95826768
v -0.37844106 1.59228384 1.87411654
v -0.15308395 1.5244801 1.84794557
v 0.06364598 2.14811468 1.65717887
v -0.18579308 2.19852781 1.79405748
v -0.4244726 0.89448308 1.9371742
v -0.2791543 0.74481856 1.85033595
v 0.02442288 1.33802533 1.75023806
v -0.57571315 0.27338171 1.80462181
v -0.453143 0.2164096 1.67750215
v -0.85479551 0.05772163 1.64803993
v -0.72145104 0.02665153 1.55923962
v -1.06293714 -0.00920151 1.56868112
v -0.91301798 -0.03985126 1.49249303
v -1.08805763 -0.09816508 1.3884865
v -1.24538409 -0.13090997 1.06567812
v -1.14046096 0.07578187 0.5791164
v 0.26179119 1.99982869 1.38993191
v 0.44670215 2.45159554 1.27696514
v 0.17172369 2.66417908 1.54196608
v -0.09141119 2.70693945 1.70589315
v 1.28320694 3.0978825 0.46227559
v 1.40575337 3.12697792 0.49832236
v -0.61826592 0.68775832 -0.27089208
v -0.84213239 0.84622007 -0.4206554
v -1.06746435 1.04170525 -0.40618476
v 0.21981197 3.58156442 1.40560591
v 1.26188051 3.05728507 -0.70867282
v 1.27943253 2.97101926 -0.65010452
v 1.2435795 2.92567443 -0.80909758
v 1.2435795 2.92567443 -0.80909758
v 1.23205268 2.96098709 -0.87977182
v 1.23205268 2.96098709 -0.87977182
v -0.1365581 0.87428641 -0.02555093
v -0.12373459 0.88595008 -0.21355731
f 1 6 7 8
f 1 9 10 6
f 1 8 11 9
f 2 12 13 14
f 2 14 15 16
f 2 16 17 12
f 18 19 20 21
f 22 23 24 25
f 3 26 27 28
f 3 28 29 30
f 3 30 31 26
f 4 32 33 34
f 4 34 35 36
f 4 36 37 32
f 5 38 39 40
f 5 41 42 38
f 5 40 43 41
f 44 45 26 31
f 45 46 47 48
f 45 48 27 26
f 45 44 49 46
f 49 50 51 46
f 49 44 31 52
f 49 52 53 50
f 53 54 55 50
f 53 52 56 57
f 53 57 58 54
f 58 59 60 54
f 58 57 61 62
f 58 62 63 59
f 63 64 65 59
f 63 62 66 67
f 63 67 68 64
f 68 69 70 64
f 68 67 71 72
f 68 72 73 69
f 73 74 75 69
f 73 72 76 77
f 73 77 78 74
f 78 79 80 74
f 78 77 81 82
f 78 82 83 79
f 83 84 85 79
f 83 82 86 87
f 83 87 88 84
f 88 89 90 84
f 88 87 91 92
f 88 92 93 89
f 93 94 95 89
f 93 92 96 97
f 93 97 98 94
f 98 99 100 94
f 98 97 101 102
f 98 102 103 99
f 103 38 42 99
f 103 102 104 105
f 103 105 39 38
f 105 104 106 107
f 105 107 37 39
f 107 106 108 109
f 107 109 32 37
f 109 108 110 111
f 109 111 33 32
f 111 110 112 113
f 111 113 17 33
f 113 112 114 115
f 113 115 12 17
f 115 114 116 117
f 115 117 13 12
f 117 116 118 119
f 117 119 10 13
f 119 118 95 120
f 119 120 6 10
f 120 95 94 100
f 120 100 7 6
f 118 116 121 90
f 118 90 89 95
f 121 116 114 122
f 121 122 123 85
f 121 85 84 90
f 123 122 124 125
f 123 125 126 80
f 123 80 79 85
f 126 125 127 128
f 126 128 129 75
f 126 75 74 80
f 129 128 130 131
f 129 131 132 70
f 129 70 69 75
f 132 131 133 134
f 132 134 135 65
f 132 65 64 70
f 135 134 136 137
f 135 137 138 60
f 135 60 59 65
f 138 137 139 140
f 138 140 141 55
f 138 55 54 60
f 141 140 142 143
f 141 143 144 51
f 141 51 50 55
f 144 143 145 146
f 144 146 147 47
f 144 47 46 51
f 147 146 148 149
f 147 149 22 25
f 147 25 48 47
f 149 148 150 151
f 149 151 23 22
f 151 150 152 153
f 151 153 21 23
f 153 152 154 155
f 153 155 18 21
f 155 154 156 157
f 155 157 19 18
f 157 156 61 158
f 157 158 29 19
f 158 61 57 56
f 158 56 30 29
f 156 66 62 61
f 156 154 159 66
f 159 71 67 66
f 159 154 152 160
f 159 160 161 71
f 161 76 72 71
f 161 160 162 163
f 161 163 164 76
f 164 81 77 76
f 164 163 165 166
f 164 166 167 81
f 167 86 82 81
f 167 166 168 169
f 167 169 170 86
f 170 91 87 86
f 170 169 171 172
f 170 172 173 91
f 173 96 92 91
f 173 172 174 175
f 173 175 176 96
f 176 101 97 96
f 176 175 177 178
f 176 178 179 101
f 179 104 102 101
f 179 178 180 181
f 179 181 106 104
f 181 180 182 183
f 181 183 108 106
f 183 182 127 184
f 183 184 110 108
f 184 127 125 124
f 184 124 112 110
f 182 180 185 130
f 182 130 128 127
f 185 180 178 177
f 185 177 186 133
f 185 133 131 130
f 186 177 175 174
f 186 174 187 136
f 186 136 134 133
f 187 174 172 171
f 187 171 188 139
f 187 139 137 136
f 188 171 169 168
f 188 168 189 142
f 188 142 140 139
f 189 168 166 165
f 189 165 190 145
f 189 145 143 142
f 190 165 163 162
f 190 162 150 148
f 190 148 146 145
f 162 160 152 150
f 124 122 114 112
f 100 99 42 7
f 56 52 31 30
f 48 25 24 27
f 43 35 15 11
f 43 11 8 41
f 43 40 36 35
f 42 41 8 7
f 40 39 37 36
f 35 34 16 15
f 34 33 17 16
f 29 28 20 19
f 28 27 24 20
f 24 23 21 20
f 15 14 9 11
f 14 13 10 9
f 191 317 318 319
f 191 319 320 321
f 191 321 322 317
f 192 323 324 325
f 192 325 326 327
f 192 327 328 323
f 193 329 330 331
f 193 331 332 333
f 193 333 334 329
f 194 335 336 337
f 194 337 338 339
f 194 339 340 335
f 195 341 342 343
f 195 344 345 341
f 195 343 346 344
f 196 347 348 349
f 196 350 351 347
f 196 349 214 352
f 197 206 353 213
f 197 213 348 347
f 198 199 354 294
f 200 356 357 358
f 200 358 354 355
f 200 202 359 356
f 201 205 361 206
f 202 207 362 363
f 202 363 364 359
f 203 365 366 345
f 203 345 344 367
f 203 367 208 295
f 203 295 204 368
f 204 209 369 370
f 205 371 372 373
f 205 296 360 371
f 205 373 374 361
f 206 361 375 353
f 207 355 376 377
f 207 220 378 362
f 208 379 380 381
f 208 209 204 295
f 208 381 369 209
f 207 377 216 220
f 210 298 380 382
f 210 382 287 211
f 210 211 315 298
f 211 287 383 286
f 212 218 384 385
f 212 386 387 218
f 212 385 297 386
f 213 353 388 389
f 214 349 390 391
f 214 392 393 352
f 214 391 394 395
f 214 395 396 392
f 215 198 397 398
f 215 216 377 198
f 217 379 399 400
f 217 382 380 379
f 217 400 287 382
f 218 300 235 401
f 218 401 402 384
f 218 387 383 300
f 219 403 404 405
f 219 405 406 407
f 219 407 408 403
f 221 231 240 232
f 221 409 229 231
f 221 410 411 409
f 221 232 301 222
f 221 222 412 410
f 223 233 234 302
f 223 301 413 233
f 224 223 302 414
f 224 414 415 215
f 215 415 241 416
f 215 416 417 378
f 225 418 419 420
f 225 420 421 422
f 225 364 363 418
f 226 367 344 346
f 226 423 208 367
f 226 303 424 423
f 226 346 425 426
f 227 399 423 424
f 227 424 289 427
f 227 427 400 399
f 228 428 429 430
f 228 431 432 428
f 228 430 433 431
f 229 409 433 430
f 230 239 435 231
f 230 246 238 239
f 233 436 437 234
f 233 413 438 436
f 234 437 414 302
f 235 427 289 439
f 235 287 400 427
f 235 439 253 401
f 235 300 383 287
f 236 440 441 442
f 236 429 428 440
f 236 442 237 429
f 237 442 443 229
f 237 229 430 429
f 230 245 444 246
f 230 434 445 245
f 239 238 446 435
f 240 413 301 232
f 240 446 438 413
f 241 415 288 447
f 241 447 448 416
f 225 422 252 364
f 242 384 402 254
f 242 243 385 384
f 242 254 449 243
f 243 450 297 385
f 243 451 452 450
f 243 449 258 451
f 244 391 390 408
f 244 408 407 453
f 244 454 394 391
f 244 455 456 454
f 244 453 457 455
f 246 444 316 305
f 246 305 293 458
f 246 458 247 238
f 247 459 436 438
f 247 460 461 459
f 247 458 251 460
f 248 304 462 463
f 248 463 464 249
f 248 249 245 304
f 249 464 465 293
f 250 746 747 749
f 250 746 748 750
f 251 458 293 314
f 251 314 292 466
f 252 303 226 426
f 252 426 359 364
f 252 289 424 303
f 252 422 467 289
f 253 439 468 469
f 253 470 402 401
f 253 469 471 470
f 254 402 470 260
f 254 260 472 449
f 255 473 474 475
f 255 476 477 478
f 255 478 479 473
f 480 481 482 483
f 256 484 485 486
f 256 487 488 484
f 256 486 489 487
f 257 490 491 492
f 257 493 475 490
f 257 492 494 493
f 258 449 472 495
f 258 495 496 451
f 259 497 263 498
f 259 498 499 500
f 259 500 501 497
f 260 470 471 306
f 260 306 264 502
f 260 502 503 472
f 261 504 505 506
f 261 506 507 477
f 261 477 476 504
f 262 266 265 263
f 262 508 507 266
f 262 263 497 509
f 263 265 510 498
f 265 266 511 510
f 266 507 506 512
f 267 513 514 308
f 267 307 515 513
f 267 308 516 517
f 268 518 519 520
f 268 520 521 522
f 268 522 523 518
f 269 524 525 526
f 269 309 527 528
f 269 526 272 309
f 270 529 421 530
f 270 530 273 310
f 270 310 531 532
f 270 532 533 529
f 271 534 535 536
f 271 537 538 534
f 271 536 539 537
f 272 540 527 309
f 272 274 541 540
f 272 526 542 276
f 273 311 277 310
f 273 530 275 311
f 274 277 311 275
f 274 275 511 543
f 275 530 544 545
f 281 546 531 310
f 277 312 281 310
f 279 282 546 280
f 282 283 547 546
f 284 542 548 285
f 284 313 276 542
f 285 549 516 550
f 285 521 520 549
f 285 548 539 521
f 286 383 387 372
f 286 372 371 370
f 288 459 461 551
f 288 551 552 447
f 288 437 436 459
f 288 415 414 437
f 289 467 468 439
f 290 553 457 453
f 555 556 553 290
f 290 453 554 555
f 291 557 558 559
f 291 560 561 557
f 291 559 443 560
f 292 314 293 465
f 292 562 563 466
f 294 564 565 566
f 294 354 358 567
f 294 567 568 564
f 297 569 570 374
f 297 374 373 386
f 298 315 381 380
f 211 369 381 315
f 299 398 571 572
f 229 443 559 434
f 304 245 445 462
f 247 438 446 238
f 255 475 493 476
f 262 509 573 508
f 308 514 550 516
f 292 465 574 562
f 574 465 464 575
f 574 575 576 577
f 574 577 578 562
f 578 579 563 562
f 578 577 553 556
f 578 556 580 579
f 580 581 582 579
f 580 556 555 583
f 580 583 584 581
f 584 585 485 581
f 584 583 540 541
f 584 541 586 585
f 586 587 588 585
f 586 541 274 543
f 586 543 512 587
f 588 589 489 486
f 588 486 485 585
f 588 587 505 589
f 589 494 492 489
f 589 505 504 494
f 587 512 506 505
f 583 555 527 540
f 582 484 488 590
f 582 590 563 579
f 582 581 485 484
f 590 488 591 592
f 590 592 466 563
f 592 591 593 594
f 592 594 251 466
f 594 593 474 595
f 594 595 460 251
f 595 474 473 596
f 595 596 461 460
f 596 473 479 597
f 596 597 551 461
f 597 479 573 598
f 597 598 552 551
f 598 573 509 599
f 598 599 600 552
f 600 599 501 601
f 600 601 602 448
f 600 448 447 552
f 602 601 603 604
f 602 604 605 417
f 602 417 416 448
f 605 604 419 418
f 605 418 363 362
f 605 362 378 417
f 604 603 606 419
f 606 499 545 544
f 606 544 420 419
f 606 603 500 499
f 603 601 501 500
f 599 509 497 501
f 593 490 475 474
f 593 591 491 490
f 591 488 487 491
f 577 576 457 553
f 576 575 607 608
f 576 608 455 457
f 608 607 609 610
f 608 610 456 455
f 610 609 558 557
f 610 557 561 456
f 609 462 445 558
f 607 575 464 463
f 607 463 462 609
f 573 479 478 508
f 571 611 612 572
f 571 398 397 566
f 571 566 565 611
f 612 613 614 412
f 612 412 222 572
f 612 611 615 613
f 615 616 617 613
f 615 611 565 618
f 615 618 619 616
f 619 620 621 616
f 619 618 622 623
f 619 623 624 620
f 624 625 626 620
f 624 623 627 628
f 624 628 629 625
f 629 630 631 625
f 629 628 632 633
f 629 633 324 630
f 633 632 634 635
f 633 635 325 324
f 635 634 636 637
f 635 637 326 325
f 637 636 638 639
f 637 639 640 326
f 640 641 327 326
f 640 639 642 643
f 640 643 644 641
f 644 645 646 641
f 644 643 647 648
f 644 648 649 645
f 649 650 318 645
f 649 648 651 652
f 649 652 653 650
f 653 340 654 650
f 653 652 334 655
f 653 655 335 340
f 655 334 333 656
f 655 656 336 335
f 656 333 332 657
f 656 657 658 336
f 658 657 659 660
f 658 660 661 662
f 658 662 337 336
f 662 661 663 664
f 662 664 338 337
f 664 663 665 666
f 664 666 667 338
f 667 668 339 338
f 667 666 669 670
f 667 670 320 668
f 670 669 631 671
f 670 671 321 320
f 671 631 630 672
f 671 672 322 321
f 672 630 324 323
f 672 323 328 322
f 669 666 665 626
f 669 626 625 631
f 668 654 340 339
f 668 320 319 654
f 665 663 673 621
f 665 621 620 626
f 673 663 661 674
f 673 674 675 617
f 673 617 616 621
f 675 674 676 677
f 675 677 678 614
f 675 614 613 617
f 678 677 679 680
f 678 680 411 410
f 678 410 412 614
f 680 679 681 682
f 680 682 683 411
f 683 682 392 396
f 683 396 431 433
f 683 433 409 411
f 682 681 393 392
f 681 684 685 393
f 681 679 686 684
f 686 659 687 684
f 686 679 677 676
f 686 676 660 659
f 687 332 331 688
f 687 688 685 684
f 687 659 657 332
f 688 331 330 689
f 688 689 690 685
f 690 689 691 692
f 690 692 196 352
f 690 352 393 685
f 692 691 693 694
f 692 694 350 196
f 694 693 642 695
f 694 695 696 350
f 696 695 638 697
f 696 697 698 699
f 696 699 351 350
f 699 698 700 366
f 699 366 365 351
f 700 698 701 702
f 700 702 342 341
f 700 341 345 366
f 702 701 703 704
f 702 704 705 342
f 705 704 706 707
f 705 707 357 708
f 705 708 343 342
f 708 357 356 425
f 708 425 346 343
f 707 706 568 567
f 707 567 358 357
f 706 709 710 568
f 706 704 703 709
f 710 627 623 622
f 710 622 564 568
f 710 709 711 627
f 711 632 628 627
f 711 709 703 712
f 711 712 634 632
f 712 703 701 713
f 712 713 636 634
f 713 701 698 697
f 713 697 638 636
f 695 642 639 638
f 693 647 643 642
f 693 691 714 647
f 714 651 648 647
f 714 691 689 330
f 714 330 329 651
f 676 674 661 660
f 654 319 318 650
f 652 651 329 334
f 646 317 322 328
f 646 328 327 641
f 646 645 318 317
f 622 618 565 564
f 570 715 716 375
f 570 375 361 374
f 570 569 717 715
f 717 718 719 715
f 717 569 481 480
f 717 480 483 718
f 719 720 721 722
f 719 722 716 715
f 719 718 723 720
f 723 724 725 720
f 723 718 483 726
f 723 726 727 724
f 727 534 538 724
f 727 726 728 729
f 727 729 535 534
f 729 728 730 731
f 729 731 523 535
f 731 730 496 732
f 731 732 518 523
f 732 496 495 733
f 732 733 519 518
f 733 495 472 503
f 733 503 734 519
f 734 503 502 517
f 734 517 516 549
f 734 549 520 519
f 730 728 482 452
f 730 452 451 496
f 728 726 483 482
f 725 524 269 735
f 725 735 721 720
f 725 724 538 524
f 735 269 528 736
f 735 736 737 721
f 737 736 406 405
f 737 405 404 738
f 737 738 722 721
f 738 404 389 388
f 738 388 716 722
f 736 528 554 406
f 716 388 353 375
f 569 297 450 481
f 561 560 441 739
f 561 739 454 456
f 739 441 440 740
f 739 740 394 454
f 740 440 428 432
f 740 432 395 394
f 560 443 442 441
f 559 558 445 434
f 555 554 528 527
f 554 453 407 406
f 548 542 526 525
f 548 525 537 539
f 547 550 514 741
f 547 741 531 546
f 741 514 513 742
f 741 742 532 531
f 742 513 515 743
f 742 743 533 532
f 743 515 471 469
f 743 469 468 533
f 545 510 511 275
f 545 499 498 510
f 544 530 421 420
f 543 511 266 512
f 539 536 522 521
f 538 537 525 524
f 536 535 523 522
f 533 468 467 529
f 529 467 422 421
f 508 478 477 507
f 504 476 493 494
f 492 491 487 489
f 482 481 450 452
f 432 431 396 395
f 426 425 356 359
f 423 399 379 208
f 408 390 744 403
f 744 390 349 348
f 744 348 213 389
f 744 389 404 403
f 387 386 373 372
f 211 286 370 369
f 355 354 199 376
f 397 198 294 566
f 376 199 198 377
f 200 355 207 202
f 215 378 220 216
f 229 434 230 231
f 245 745 316 444
f 276 313 278
f 231 435 446 240
f 347 351 365 197
f 296 205 201
f 296 201 368
f 296 368 360
f 368 204 371 360
f 204 370 371
f 365 203 206 197
f 203 368 201 206
f 572 222 301 223
f 299 224 215 398
f 299 572 223 224
f 293 745 245 249
f 293 305 316 745
f 306 471 515
f 306 515 307
f 306 307 264
f 307 517 502 264
f 307 267 517
f 279 280 281 312
f 280 546 281
f 282 279 752 751
f 312 277 752 279
f 283 282 751 284
f 284 285 550 283
f 550 547 283
f 751 278 313 284
f 751 752 277 278
f 277 274 272 278
f 272 276 278
f 747 746 750
f 747 750 748
f 747 748 746
f 747 746 749

 